<svg viewBox="0 0 1135 1135" xmlns="http://www.w3.org/2000/svg" xmlns:xlink="http://www.w3.org/1999/xlink" xml:space="preserve" overflow="hidden"><defs><clipPath id="clip0"><rect x="1633" y="669" width="1135" height="1136"/></clipPath></defs><g clip-path="url(#clip0)" transform="translate(-1633 -669)"><path d="M567.067 1135.13C880.199 1135.13 1134.07 881.036 1134.07 567.628 1134.07 254.215 880.199 0.127463 567.067 0.127463 253.934 0.127463 0.0668538 254.215 0.0668538 567.628 0.0668538 881.036 253.934 1135.13 567.067 1135.13ZM1008.31 689.333 1019.7 678.821C1019.7 678.821 1026.55 671.312 1033.65 667.899 1040.74 664.486 1043.4 662.063 1043.53 661.312 1043.64 660.562 1045.54 657.9 1043.53 653.429 1041.49 648.992 1035.28 646.363 1032.62 646.467 1029.96 646.602 1027.06 649.128 1023.48 651.927 1019.94 654.726 1013.63 658.138 1013.63 658.138 1013.63 658.138 1009.57 658.514 1005.51 657.49 1001.46 656.5 989.18 651.927 985.36 651.176 981.576 650.39 974.21 649.776 971.687 651.653 969.164 653.564 968.003 657.115 968.003 659.401 968.003 661.688 969.675 666.262 969.675 666.262L971.449 670.8 965.344 672.37 958.388 672.063C958.388 672.063 951.432 672.712 947.749 672.063 944.067 671.448 940.52 667.899 940.52 667.899 940.52 667.899 937.349 665.1 928.722 664.213 920.129 663.327 910.752 664.725 910.752 664.725 912.149 663.906 908.229 674.35 910.752 676.568 913.275 678.787 920.47 679.981 927.562 680.527 934.655 681.005 952.863 682.541 957.843 683.155 962.786 683.804 989.93 685.032 992.487 684.759 995.011 684.52 994.226 681.96 994.226 680.971 994.226 679.947 995.965 674.656 994.226 673.087 992.521 671.516 983.859 667.899 983.177 667.899 982.939 667.899 981.098 668.343 978.711 668.957L978.405 666.397C978.405 666.397 981.302 661.927 984.61 662.711 987.918 663.462 992.214 667.899 995.522 667.899 998.795 667.899 1001.73 669.913 1002.99 670.937 1004.25 671.961 1006.23 678.172 1006.23 679.06 1006.23 679.947 1008.31 689.333 1008.31 689.333ZM928.653 532.064C928.653 532.064 932.813 533.465 941.066 535.99 949.352 538.55 956.513 541.928 956.513 541.928L938.884 545.751C938.884 545.751 933.052 552.475 932.438 554.522 931.825 556.536 928.653 575.819 928.653 584.659 928.653 593.429 953.58 591.655 953.58 591.655L974.687 591.791C976.597 589.744 978.369 587.661 979.257 586.228 981.337 582.781 985.258 585.955 989.725 586.228 994.191 586.467 993.953 589.641 994.09 593.053 994.191 596.501 989.725 603.6 989.725 603.6L980.007 612.952C980.007 612.952 968.481 633.395 966.197 637.832 963.912 642.268 961.627 650.766 961.627 650.766 950.75 648.992 949.216 639.367 949.352 636.398 949.454 634.214 950.75 629.299 951.738 625.681 948.465 626.672 943.282 628.616 936.564 632.508 924.629 639.367 916.242 646.841 915.628 647.899 914.98 648.958 912.115 650.766 912.115 650.766 912.115 650.766 911.331 651.518 909.865 648.992 908.433 646.467 907.649 641.142 909.865 637.968 912.115 634.793 921.458 626.534 926.164 623.873 930.836 621.21 949.283 611.04 960.502 607.081L962.07 606.535 962.377 606.057C957.809 605.886 947.408 605.477 941.066 604.76 932.813 603.839 926.164 603.088 921.663 599.402 917.162 595.716 913.48 587.218 913.616 574.761 913.753 562.303 913.616 547.731 928.653 532.064ZM994.191 598.276C994.191 598.276 1001.83 599.777 1003.71 601.552 1005.58 603.327 1005.58 608.651 1005.58 612.098 1005.58 615.511 1001.66 625.136 1001.66 625.136 1001.66 625.136 1002.17 628.07 997.499 627.558 992.795 627.047 990.271 627.935 989.896 625.92 989.521 623.873 989.896 619.06 989.896 614.999 989.896 610.937 994.191 598.276 994.191 598.276ZM1034.53 620.391C1037.12 620.016 1039.78 619.879 1041.21 620.733 1044.45 622.61 1048.92 627.831 1049.57 628.821 1050.18 629.846 1053.63 628.821 1054.14 624.453 1054.62 620.084 1052.23 610.289 1049.94 608.651 1047.66 607.081 1042.58 607.081 1042.58 607.081 1042.58 607.081 1040.7 607.115 1037.91 608.992 1038.21 605.341 1038.42 600.187 1038.42 600.187 1038.42 600.187 1039.78 597.252 1040.43 595.921 1041.08 594.556 1042.1 594.215 1044.45 592.713 1046.81 591.177 1044.45 586.228 1042.1 580.631 1039.71 575.068 1029.42 574.181 1028.02 575.068 1026.62 575.954 1022.19 581.791 1022.19 585.204 1022.19 588.617 1012.57 601.075 1011.68 602.951 1010.8 604.863 1005.58 617.047 1005.58 617.047 1005.58 617.047 1022.19 604.249 1025.49 602.712 1028.84 601.177 1028.15 603.975 1027.64 607.081 1027.13 610.153 1022.19 616.16 1017.89 619.846 1013.59 623.531 1012.81 629.469 1012.81 629.469L1013.36 638.105C1010.76 637.183 1008 636.535 1006.6 636.432 1004.46 636.33 1001.15 636.432 996.852 636.432 992.556 636.432 992.93 636.398 989.248 636.398 985.565 636.398 984.815 639.299 985.463 641.005 986.076 642.678 987.099 648.992 989.623 648.992 992.18 648.992 998.693 648.992 1003.71 648.992 1008.75 648.992 1022.19 648.992 1022.19 648.992 1022.19 648.992 1020.28 641.381 1017.24 639.743 1016.56 639.367 1015.81 639.026 1014.96 638.685L1017.14 637.695 1025.49 629.469C1025.49 629.469 1031.05 625.784 1032.83 623.634 1033.41 622.951 1033.99 621.757 1034.53 620.391ZM918.015 837.726C918.015 837.726 920.402 840.491 915.218 841.003 910.035 841.515 908.364 842.47 903.182 842.129 897.999 841.822 893.156 841.276 888.995 839.979 884.802 838.648 881.324 838.716 879.755 837.726 878.153 836.702 874.026 833.255 872.902 832.368 871.742 831.515 869.526 828.272 872.902 825.917 876.277 823.562 878.153 823.255 881.835 823.562 885.518 823.904 895.066 826.122 898.237 827.555 901.408 829.023 906.864 829.842 909.763 830.867 912.696 831.891 912.491 832.026 914.468 832.845 916.412 833.665 918.015 837.726 918.015 837.726ZM839.655 806.634C839.655 806.634 840.678 798.205 842.076 794.417 843.473 790.662 844.736 787.965 846.884 783.563 849.032 779.126 852.953 775.816 854.488 774.04 856.022 772.267 857.932 771.89 861.069 771.242 864.24 770.628 873.686 771.618 878.392 773.53 881.187 774.655 883.882 775.816 885.62 776.601 884.597 777.932 883.506 779.297 882.109 780.526 878.289 783.802 878.801 786.225 878.801 789.263 878.801 792.301 877.914 798.307 878.801 801.959 879.687 805.61 885.143 807.146 885.143 807.146 885.143 807.146 887.666 803.768 888.042 801.037 888.417 798.341 890.701 794.417 891.724 794.417 892.747 794.417 896.431 788.001 897.827 786.976 899.192 785.986 900.078 782.607 900.078 782.607L903.625 782.607 907.103 786.464 907.103 782.607 911.501 782.607C911.501 782.607 923.163 782.539 928.586 782.642 934.041 782.812 934.689 781.925 934.928 784.45 935.201 786.976 932.029 789.502 932.029 789.502 932.029 789.502 910.479 794.417 908.467 796.634 906.421 798.819 906.932 803.768 908.467 806.122 909.967 808.512 915.662 814.007 915.662 814.007 923.641 801.447 926.198 803.768 934.928 795.713 943.692 787.692 943.692 788.511 946.078 780.901 948.465 773.291 943.692 767.829 941.645 766.943 939.599 766.056 929.745 768.206 926.574 770.117 923.403 771.994 913.514 777.079 912.115 776.566 910.752 776.055 908.467 773.154 908.706 771.89 908.945 770.628 909.456 768.206 910.24 765.441 910.99 762.677 914.025 762.744 915.798 758.205 917.572 753.632 917.844 749.707 916.957 746.635 916.037 743.598 911.979 744.383 911.979 744.383L909.456 746.635C909.456 746.635 904.784 752.744 903.76 754.758 903.284 755.714 900.965 758.443 898.34 761.413 897.112 761.277 895.168 760.867 892.236 759.98 886.029 758.069 878.937 754.144 874.504 753.632 870.071 753.119 862.331 752.233 858.307 751.994 854.248 751.721 843.986 752.233 839.655 763.53 835.358 774.792 838.53 781.413 837.506 784.314 836.483 787.249 833.346 798.273 839.655 806.634ZM978.335 791.379 999.307 785.713C999.307 785.713 1009.67 781.652 1012.98 783.7 1016.25 785.713 1016.77 782.915 1015.88 781.038 1014.99 779.126 1008.92 769.844 1007.15 767.181 1005.38 764.553 999.409 762.642 997.158 764.928 995.624 766.43 989.93 770.117 986.315 772.403 986.69 769.604 986.861 767.181 986.861 766.056 986.861 763.017 985.088 755.543 981.916 752.505 978.745 749.468 972.164 746.396 968.754 746.635 965.344 746.909 959.377 753.905 957.604 758.342 955.83 762.778 955.558 767.078 955.558 767.078 955.558 767.078 961.388 759.707 968.003 759.093 974.584 758.443 976.972 758.581 978.643 761.516 980.28 764.416 981.439 769.74 978.268 775.577 975.097 781.413 971.55 791.823 955.455 805.576 939.361 819.331 933.837 821.549 929.097 825.405 924.357 829.262 924.357 830.149 920.402 833.665 920.402 833.665 927.051 834.381 930.665 832.845 933.427 831.686 944.953 822.129 951.772 816.498 951.193 818.17 951.397 820.389 951.397 822.163 951.397 824.382 953.649 828.307 954.501 829.535 955.353 830.729 958.252 832.3 960.638 833.836 963.06 835.337 964.935 835.747 966.469 836.634 968.003 837.521 971.993 837.829 971.993 837.829L971.993 833.836C971.993 833.836 970.595 829.979 970.459 829.262 970.323 828.579 971.277 824.075 971.244 822.88 971.141 821.651 967.185 816.805 962.685 814.484 959.923 813.119 957.127 813.119 955.115 813.734L956.376 812.71C958.866 810.799 971.345 798.955 978.335 791.379ZM989.18 814.621C989.18 814.621 983.963 815.269 980.109 813.324 976.256 811.378 974.824 810.252 973.903 808.545 972.949 806.839 973.903 803.085 973.903 801.31 973.903 799.536 977.074 797.556 980.621 798.409 984.167 799.229 987.406 800.935 988.292 802.471 989.18 803.972 990.066 807.01 990.168 809.536 990.305 812.096 989.18 814.621 989.18 814.621ZM347.878 765.441 774.594 765.441C798.599 765.441 818.206 745.817 818.206 721.823L818.206 412.408C818.206 388.416 798.599 368.79 774.594 368.79L347.878 368.79C323.941 368.79 304.299 388.416 304.299 412.408L304.299 721.823C304.299 745.817 323.941 765.441 347.878 765.441ZM346.105 710.425 711.988 710.425 539.174 622.167C539.174 622.167 533.377 618.753 525.875 622.167ZM352.345 406.469C352.345 406.469 496.277 492.167 714.716 480.769L716.966 480.633C716.012 465.241 715.875 449.779 716.864 434.387L714.17 435.138C714.17 435.138 640.687 463.773 352.345 406.469ZM346.105 435.138C346.105 435.138 462.042 619.504 783.323 710.425L783.358 710.425C775.344 694.111 764.637 670.595 754.134 642.439L747.86 639.026C747.86 639.026 567.339 642.78 346.105 435.138ZM346.105 422.954C346.105 422.954 518.033 598.515 742.029 620.63L746.53 621.074C740.904 604.454 735.516 586.57 730.913 567.97L726.31 567.116C726.31 567.116 518.851 564.283 346.105 422.954ZM726.105 546.774 723.275 547.457C723.275 547.457 548.687 551.006 346.105 414.081 529.046 487.116 573.545 501.553 717.443 497.253L718.5 498.516C720.206 514.864 722.832 531.041 726.105 546.774ZM355.993 750.697 766.512 750.697C786.631 750.697 803.067 734.247 803.067 714.11L803.067 420.121C803.067 399.985 786.631 383.534 766.512 383.534L355.993 383.534C335.875 383.534 319.439 399.985 319.439 420.121L319.439 714.11C319.439 734.247 335.875 750.697 355.993 750.697ZM1061.3 475.957C1018.2 245.105 813.194 70.2269 566.794 70.2269 321.417 70.2269 117.095 243.67 72.8341 473.158L182.054 501.417C213.39 319.68 373.691 181.287 566.794 181.287 758.532 181.287 917.981 317.734 950.886 497.595ZM531.978 135.618C529.626 113.643 535.491 90.6049 561.27 87.9113 585.344 85.379 597.756 103.947 596.972 125.659 596.46 140.021 592.879 148.382 585.685 154.969 565.976 173.026 534.707 161.18 531.978 135.618ZM545.891 132.482C544.561 117.433 547.903 101.66 562.565 99.8171 576.239 98.0745 583.298 110.771 582.855 125.659 582.582 135.483 580.536 141.219 576.444 145.756 565.225 158.112 547.46 149.989 545.891 132.482ZM473.635 171.081 462.042 103.369 476.841 99.9187 480.796 124.902 508.177 124.902C508.177 124.902 518.066 128.216 521.408 141.762 524.75 155.351 518.578 164.223 507.291 168.284 495.97 172.346 473.635 171.081 473.635 171.081ZM485.331 155.623 483.899 137.871 498.016 137.871C501.017 137.871 502.687 137.666 504.29 140.505 507.871 146.785 506.029 155.623 501.119 155.623ZM366.598 193.948C342.456 169.1 344.263 137.292 378.805 126.373 392.445 122.038 407.347 127.494 416.621 141.185 449.765 190.26 388.762 216.714 366.598 193.948ZM380.135 177.19C371.713 166.543 365.95 156.438 375.157 147.906 384.363 139.374 394.56 146.165 399.845 155.317 408.335 169.95 405.675 176.783 398.037 181.218 392.377 184.49 384.432 182.655 380.135 177.19ZM315.927 247.596 273.882 192.308 315.927 159.99C315.927 159.99 330.931 156.813 339.421 164.936 347.912 173.06 339.421 189.037 339.421 189.037 339.421 189.037 352.004 189.41 355.891 195.759 359.71 202.072 361.79 214.394 349.958 222.51ZM322.44 188.756C322.44 188.756 322.781 190.464 322.201 191.866 320.565 195.759 310.471 203.704 305.969 200.194 302.014 197.084 300.957 191.628 307.197 187.159 313.438 182.723 318.451 180.156 322.44 188.756ZM337.307 210.094C337.307 210.094 337.546 211.828 336.898 213.162 336.113 214.701 334.307 215.924 332.942 217.122 330.385 219.34 323.941 223.844 320.155 220.461 316.37 217.122 315.687 211.59 322.201 207.528 328.748 203.466 333.897 201.248 337.307 210.094ZM290.59 242.888 296.763 248.08C296.763 248.08 299.184 257.564 296.968 262.646 293.251 271.254 285.886 283.67 273.234 288.281 257.685 293.946 241.284 288.587 229.86 279.335 219.153 270.668 212.743 258.728 217.346 244.8 220.79 234.254 239.34 214.734 253.048 212.066 257.447 211.216 262.902 211.114 267.267 213.91 276.645 219.985 283.771 232.75 283.771 232.75L260.141 255.821 249.467 246.814 259.629 235.792C259.629 235.792 259.356 229.58 254.617 229.342 249.876 229.07 242.511 234.866 239.306 238.316 236.101 241.732 232.009 252.652 242.511 261.796 253.048 270.906 261.573 274.968 274.155 264.694 277.19 262.203 278.009 252.652 278.009 252.652ZM166.436 305.755 153.751 322.239 214.515 361.965 225.326 344.969 209.639 305.755 241.761 322.136 253.048 305.755 196.784 267.328 183.417 281.936 195.761 321.624ZM134.212 361.044 147.308 338.348 209.639 369.303 198.455 391.624ZM102.603 444.25 109.524 424.729 141.544 431.452 141.544 427.767 138.577 422.442 120.198 399.371 119.038 393.398C119.038 393.398 124.188 376.402 125.585 376.026 127.018 375.651 192.011 395.685 192.011 395.685L188.431 415.206 146.045 404.695 178.781 440.701 174.552 464.933ZM994.465 466.673 986.895 450.326C971.209 455.582 963.809 433.398 975.063 427.357 977.04 426.298 981.576 423.841 986.008 421.452 991.566 418.415 997.022 415.48 997.022 415.48 1020.59 407.322 1025.8 431.384 1012.2 440.428 1018.68 452.647 1019.36 453.124 1019.36 453.124 1019.36 453.124 1031.6 445.752 1031.87 431.93 1032.11 418.108 1023.24 408.996 1017.72 404.217 1012.2 399.473 994.704 395.002 973.527 407.971 952.319 420.907 956.41 439.541 958.627 446.504 960.775 453.5 969.742 473.397 994.465 466.673ZM948.125 404.217 942.361 391.043 1006.02 361.863 1012.2 376.436ZM974.449 306.779 967.493 293.707 910.785 326.982 919.958 344.286 973.05 344.286 930.256 365.855 937.451 379.781 996.442 349.132 988.362 332.58 931.927 330.874ZM874.607 289.884 866.354 279.989 917.776 234.968 926.779 246.406 904.886 264.625 921.322 285.652 945.158 266.945 953.239 277.322 900.794 319.065 892.202 308.519 913.001 292.171 896.226 271.866ZM866.047 259.714 858.716 248.454C858.716 248.454 848.998 252.516 845.724 250.468 842.451 248.454 836.04 246.202 835.256 240.262 834.472 234.322 838.087 225.416 845.417 219.34 852.748 213.23 857.386 207.8 867.922 206.644 882.552 205.072 884.802 225.042 876.788 231.424 885.757 238.112 888.008 240.432 888.008 240.432 895.986 225.926 899.635 209.168 883.062 198.418 879.721 196.234 876.311 194.254 872.151 193.54 848.794 189.581 826.493 209.984 821.514 230.974 815.342 257.19 844.463 273.191 866.047 259.714ZM811.864 224.422 804.226 234.968 765.796 208.692 804.499 146.436 848.691 175.482 840.781 186.267 811.933 165.48 802.01 180.743 826.459 197.399 819.911 208.182 794.985 191.493 784.96 206.95ZM709.396 184.116 716.251 169.066 731.663 176.128 753.759 124.223 767.911 130.401 744.143 180.946 762.591 190.09 755.805 203.747ZM655.008 170.162C653.338 169.78 639.868 165.31 639.868 165.31L671.205 127.809 679.423 100.02 693.711 103.607 685.731 131.59 694.87 182.824 681.332 177.87 676.286 141.117ZM606.178 163.679 621.387 165.31 627.081 106.683 655.349 109.003 657.122 94.0554 614.225 90.3331ZM93.3966 563.328C93.3966 563.328 85.7922 562.44 83.2687 563.464 80.7113 564.488 79.2102 565.478 78.5622 567.628 77.915 569.777 77.062 571.962 77.062 571.962 77.062 571.962 72.0845 572.645 72.3572 570.051 72.6291 567.457 72.7325 558.276 77.8125 556.604 82.8595 554.966 94.1462 550.631 100.864 548.481 107.581 546.331 118.083 540.768 125.824 542.167 133.564 543.566 136.736 543.532 138.372 546.604 140.01 549.642 139.872 553.055 139.123 555.717 138.372 558.379 139.259 562.065 132.814 563.088 126.336 564.078 127.086 564.625 117.845 564.351 108.604 564.078 106.013 563.977 106.013 563.977 106.013 563.977 104.785 567.047 104.034 569.539 103.285 572.031 103.012 580.426 101.102 585.512 99.2262 590.597 95.0332 598.583 92.5097 603.668 89.9514 608.72 89.9514 607.457 88.6901 611.756 87.4279 616.091 85.6558 628.788 85.0078 634.862 84.3936 640.937 86.0311 644.862 86.0311 644.862 86.0311 644.862 93.4982 639.026 97.7947 632.063 102.125 625.101 115.561 607.218 115.561 607.218L117.947 606.432C117.947 606.432 112.765 624.965 112.253 626.091 111.741 627.252 98.4427 661.585 97.1814 665.919 95.9192 670.22 94.1462 675.681 88.8265 674.93 83.5076 674.145 75.6304 665.033 73.9938 658.173 72.3572 651.347 71.8456 640.152 73.6186 633.839 75.3915 627.491 76.6528 625.341 74.5046 624.691 72.3572 624.043 68.4013 626.604 63.4915 625.715 58.5461 624.828 52.2039 626.604 48.01 619.368 43.8499 612.167 41.8041 607.457 42.1794 604.658 42.5547 601.859 45.1121 601.108 48.5216 601.108 51.9312 601.108 61.0696 600.733 63.3543 602.746 65.6389 604.794 64.3776 607.558 67.4118 606.432 70.447 605.307 71.9472 607.457 75.6304 600.084 79.3127 592.713 79.688 596.16 79.688 596.16L78.6656 603.122 78.9036 608.446 84.3597 594.999C84.3597 594.999 91.0772 576.706 92.2021 572.166 93.3618 567.628 93.3966 563.328 93.3966 563.328ZM844.361 927.963C844.361 927.963 846.645 936.189 844.736 938.476 842.826 940.762 839.791 944.585 838.803 945.199 837.779 945.847 838.155 946.598 833.824 946.598L831.506 946.598 836.892 954.073 845.486 961.82C845.486 965.13 844.497 969.533 843.235 973.22 841.973 976.905 840.814 980.352 839.553 981.99 838.291 983.628 838.018 985.403 835.496 985.915 832.972 986.427 830.687 985.915 829.391 982.502 828.13 979.055 823.969 968.169 822.571 964.995 821.548 962.673 813.876 952.128 809.784 946.598L802.554 946.598 783.051 946.598C783.051 946.598 785.949 942.673 788.37 937.281 790.586 932.264 791.745 930.591 794.678 928.407 785.812 917.998 767.807 908.442 754.032 907.93 750.724 907.793 738.585 907.93 736.539 907.93 734.527 907.93 731.22 908.681 730.982 906.394 730.708 904.107 734.902 894.62 738.96 892.571 743.018 890.525 754.544 890.66 760.988 892.571 767.467 894.482 771.763 894.995 771.763 894.995L773.571 895.848 763.546 876.19C763.546 876.19 756.317 869.602 755.328 866.702 754.271 863.767 750.622 857.931 755.328 854.654 759.999 851.344 763.682 852.641 769.615 857.179 775.582 861.753 776.333 873.834 778.481 876.292 780.663 878.75 788.233 895.097 788.233 895.097L793.689 897.008 805.487 878.989 806.135 875.61 799.861 876.292C799.861 876.292 805.385 865.473 806.135 864.825 806.886 864.21 809.614 857.282 810.364 854.619 811.114 851.959 814.49 849.159 816.058 849.466 817.661 849.808 819.877 853.289 822.026 855.063 824.174 856.839 824.685 859.057 824.685 861.787 824.685 864.517 826.083 869.5 824.685 872.06 823.288 874.619 821.378 878.34 821.378 878.34 821.378 878.34 809.477 893.834 808.829 894.381 808.148 894.926 804.158 896.872 801.771 899.807 799.35 902.708 798.975 903.459 798.975 904.619 798.975 905.097 799.009 906.496 799.077 907.93L801.158 908.92C805.351 910.967 811.524 916.531 814.251 919.944 815.717 921.786 816.604 923.8 817.149 925.302 819.571 925.302 821.583 925.336 822.809 925.438 827.89 925.813 844.361 927.963 844.361 927.963ZM847.872 944.926 850.396 947.144 852.681 949.874 852.681 951.786 851.794 955.916C851.794 955.916 851.044 959.055 852.681 959.26 854.352 959.465 859.262 960.011 860.114 959.26 860.933 958.51 862.127 957.109 862.57 956.529 863.013 955.95 865.979 953.697 866.32 952.981 866.627 952.297 867.07 950.456 867.445 949.567 867.821 948.68 869.218 946.974 869.423 944.926 869.594 942.878 870.412 940.762 869.901 939.056 869.423 937.349 869.867 934.415 868.093 933.117 866.32 931.854 866.831 930.865 863.661 930.796 860.489 930.728 859.773 930.728 858 932.333 856.227 933.902 855.034 934.584 855.102 936.121 855.17 937.657 851.351 941.001 851.248 941.513 851.113 942.025 847.872 944.926 847.872 944.926ZM618.045 1023.53C617.124 1022.94 611.566 1019.26 608.77 1018.78 605.735 1018.27 600.177 1016.39 598.779 1015.13 597.381 1013.87 593.46 1012.19 596.119 1009.16 598.779 1006.12 606.144 1002.57 608.395 999.771 609.929 997.929 612.282 997.963 614.294 998.202 612.725 993.151 610.782 987.075 609.213 982.025L609.144 981.922 585.344 964.243C585.344 964.243 579.001 964.004 579.001 959.703 579.001 955.37 581.286 948.27 584.594 945.233 587.901 942.195 593.323 931.342 593.97 928.92 594.585 926.53 594.482 924.619 595.472 923.595 596.494 922.605 603.484 922.981 606.383 925.506 609.316 928.032 610.952 931.48 612.214 937.315 613.476 943.151 612.725 949.465 614.362 953.015 616.033 956.564 618.795 970.386 618.795 970.386L621.352 981.615 621.318 981.581 633.492 994.175 635.879 997.554 647.814 998.748C647.814 998.748 654.667 998.748 661.964 999.771 660.464 992.331 659.168 984.994 658.589 977.177 658.35 973.628 662.646 973.389 662.646 973.389 662.646 973.389 666.158 974.891 667.387 977.076 668.682 979.192 669.057 979.84 671.205 981.171 673.354 982.502 674.24 981.82 676.15 981.444 678.059 981.035 678.059 978.953 678.469 975.335 678.946 971.717 676.081 966.086 672.774 958.714 669.5 951.376 666.601 950.966 664.557 950.49 662.544 949.977 659.236 951.239 659.236 951.239 659.236 951.239 649.723 961.274 645.802 963.049 641.88 964.823 630.457 970.796 622.614 958.1 614.771 945.438 625.411 934.516 627.797 932.878 630.219 931.206 643.415 927.554 649.723 926.906 656.031 926.257 658.589 928.032 660.259 928.168 661.93 928.306 664.557 926.633 665.681 924.756 666.84 922.844 669.125 912.81 670.012 910.422 670.899 907.998 679.628 906.496 682.561 906.872 685.459 907.247 688.494 909.67 688.494 912.708 688.494 915.746 685.083 924.483 685.083 924.483L673.047 940.967C673.047 940.967 676.967 943.902 677.615 944.755 678.229 945.677 687.88 958.544 690.198 965.13 692.551 971.717 688.698 983.014 687.88 985.677 687.027 988.338 682.423 990.352 681.265 990.42 680.139 990.488 671.716 990.42 671.716 990.42L674.308 1002.74C680.412 1004.96 682.253 1006.6 687.846 1006.6 694.427 1006.6 697.121 1009.64 697.121 1009.64 698.894 1012.33 697.735 1017.52 696.711 1018.64 695.722 1019.77 695.348 1021.2 689.516 1021.31 684.879 1021.41 682.423 1023.35 679.389 1022.57L681.128 1027.52C681.537 1028.54 682.527 1043.9 682.527 1046.8 682.527 1049.74 684.061 1056.8 682.527 1062.02 681.026 1067.21 674.82 1065.2 671.513 1065.2 668.239 1065.2 668.477 1056.97 668.477 1047.69 668.477 1035.06 666.84 1024.31 664.897 1014.28 660.396 1011.75 656.44 1009.64 656.44 1009.64L634.378 997.383 625.648 994.175 623.637 992.707 623.842 992.502 626.604 1004.79C628.343 1006.05 629.945 1007.14 631.105 1007.66 634.617 1009.16 640.073 1010.86 643.142 1010.86 646.176 1010.86 649.723 1017.89 649.723 1019.81 649.723 1021.72 645.256 1025.13 640.96 1026.15 637.788 1026.9 634.583 1027.38 633.15 1027.59 633.867 1031.38 634.583 1034.99 634.889 1036.29 635.64 1039.46 639.698 1045.16 639.595 1047.45 639.459 1049.74 635.265 1057.86 631.105 1061.03 626.911 1064.21 624.217 1066.87 622.478 1063.93 620.705 1061.03 619.954 1054.69 619.682 1050.39ZM651.632 939.261C651.632 939.261 647.643 949.398 645.631 950.865 643.585 952.333 636.253 956.7 634.924 956.7 633.594 956.7 629.263 955.676 627.899 953.015 626.502 950.352 626.195 946.735 627.899 943.697 629.604 940.66 633.594 940.012 646.518 939.261ZM604.371 964.107C602.735 957.622 600.688 949.943 600.688 949.943 600.688 949.943 599.666 947.622 598.336 947.827 597.006 948.031 595.539 948.407 595.472 949.294 595.437 950.182 593.391 952.741 595.472 954.892L604.405 964.072ZM470.942 946.769 467.941 954.14 472.953 959.329 473.908 960.66 477.659 945.881 477.932 945.711 467.6 939.568ZM490.719 953.355C490.719 953.355 488.093 963.936 485.025 976.666 489.423 982.911 493.685 989.089 495.39 991.683 499.448 997.758 507.189 1002.2 509.575 1003.97 511.997 1005.74 513.258 1008.92 511.11 1013.08 508.962 1017.28 499.823 1023.25 496.277 1023.87 492.731 1024.52 490.207 1021.48 489.559 1018.41 488.946 1015.37 485.501 1005.88 485.501 1005.88L480.659 995.472C478.477 1005.06 476.67 1013.59 476.125 1017.55 474.624 1029.19 477.659 1036.15 477.659 1040.21 477.659 1044.31 474.863 1049.09 470.942 1051 467.019 1052.91 453.346 1057.24 449.902 1056.97 446.492 1056.73 444.48 1048.99 447.651 1046.56 450.788 1044.17 456.109 1030.86 456.109 1030.86L470.532 973.936 464.871 961.786C463.098 966.188 461.632 969.976 461.563 970.352 461.428 971.377 456.006 985.54 455.63 987.451 455.256 989.396 455.869 1000.28 451.812 1002.43 447.754 1004.62 443.082 1005.88 440.15 1005.88 437.251 1005.88 428.999 1005.61 425.725 1004.11 422.418 1002.57 420.031 1003.08 420.918 1001.31 421.805 999.533 426.613 989.089 428.999 987.451 430.158 986.666 434.148 979.704 438.172 972.025 433.296 969.601 425.725 965.813 424.703 965.062 423.168 963.902 416.963 960.83 417.474 957.042 417.985 953.254 422.282 943.595 424.328 941.445 426.339 939.295 436.876 936.633 438.513 939.056 440.15 941.445 440.422 948.919 442.298 951.343 443.185 952.468 444.412 955.062 445.435 957.52 446.697 954.892 447.651 952.741 448.129 951.478 450.549 945.131 451.812 938.408 451.812 936.495 451.812 934.619 451.3 930.694 451.3 930.694L454.267 931.581 429.647 916.837 425.862 915.951C425.862 915.951 419.588 916.087 417.474 915.951 415.325 915.813 410.893 910.694 412.905 908.646 414.95 906.565 422.793 902.264 425.862 901.753 428.897 901.241 432.068 901.616 433.432 902.913 434.865 904.176 461.053 923.561 477.557 932.333 494.027 941.069 512.133 948.68 519.839 949.704 527.58 950.694 527.716 956.155 526.83 957.792 525.944 959.465 521.681 963.629 516.941 963.629 512.201 963.629 510.359 963.117 505.654 960.966 500.983 958.817 490.719 953.355 490.719 953.355ZM223.586 908.238C225.461 907.486 228.53 907.588 230.542 908.749 232.588 909.875 233.202 912.674 234.975 914.96 236.749 917.247 240.431 918.613 240.431 918.613 240.431 918.613 243.228 913.937 243.091 911.547 242.954 909.125 245.887 895.166 248.41 889.568 250.934 884.005 256.628 871.07 266.347 859.159 276.031 847.248 278.315 845.576 278.315 845.576 278.315 845.576 279.44 843.05 280.6 840.388 281.725 837.726 284.282 831.515 286.943 830.354 289.603 829.228 294.41 829.74 295.433 833.017 296.422 836.327 295.433 839.603 295.433 842.914 295.433 846.225 297.581 868.033 295.876 872.572 294.137 877.146 292.262 882.981 292.126 885.03 291.989 887.043 293.66 890.216 293.66 890.216L292.364 895.301C296.218 890.285 300.855 883.835 304.299 879.159 309.754 871.788 313.301 867.282 313.301 867.282L314.529 864.313 309.959 863.357 307.027 863.357C307.027 863.357 314.529 861.207 314.529 860.047 314.529 858.921 315.927 855.508 318.246 853.732 320.599 851.959 324.213 849.534 326.054 849.739 327.895 849.91 330.283 852.402 330.418 854.552 330.556 856.701 329.6 861.412 327.895 863.289 326.191 865.201 323.327 866.975 321.177 869.568 309.482 883.698 302.696 894.278 294.24 904.107 284.965 914.893 274.02 924.926 259.493 939.295 259.493 939.295 254.822 940.421 253.048 938.646 251.275 936.871 249.809 934.824 253.048 932.059 255.843 929.636 276.679 911.547 284.419 904.415L283.261 892.231C283.261 892.231 279.475 889.944 275.655 892.742 271.871 895.507 274.36 896.803 270.336 902.128 266.347 907.452 262.698 910.489 260.073 912.025 257.413 913.562 250.832 915.302 251.343 912.265 251.855 909.227 260.073 906.701 260.073 903.391 260.073 900.114 269.587 892.231 271.598 889.706 273.644 887.146 278.963 882.367 279.202 878.271 279.475 874.244 281.487 864.859 280.975 863.05 280.463 861.309 279.066 861.787 277.19 864.586 275.281 867.384 274.02 868.783 274.02 868.783 274.02 868.783 270.712 865.61 272.996 862.675 275.281 859.774 276.304 856.6 276.304 856.6 276.304 856.6 270.779 861.036 268.563 864.859 266.347 868.647 255.366 886.906 254.003 892.094 252.605 897.316 250.457 903.015 249.809 905.677 249.161 908.339 247.66 912.196 247.456 914.449 247.285 916.666 246.842 919.124 246.399 921.275 245.956 923.425 247.149 937.998 248.683 942.708 250.218 947.417 251.855 952.606 252.366 955.267 252.877 957.929 253.866 959.977 252.093 961.615 250.319 963.253 244.353 964.038 242.989 961.615 241.591 959.226 240.295 951.205 237.396 944.619 234.498 938.032 230.065 926.735 228.394 923.186 226.758 919.636 222.564 911.685 222.427 910.899 222.256 910.114 224.609 907.554 223.586 908.238ZM341.092 948.441C341.092 948.441 346.275 954.209 351.97 955.642 357.664 957.109 365.132 954.755 367.689 950.728 370.212 946.633 371.098 940.114 370.485 937.793 369.837 935.473 360.733 932.333 358.312 932.572 355.891 932.844 351.73 934.96 347.537 939.635 343.343 944.312 341.092 944.312 341.092 944.312ZM311.289 913.049C311.289 913.049 316.131 909.261 319.542 906.975 322.951 904.688 329.021 898.272 330.418 896.497 331.817 894.687 330.317 888.476 327.52 886.053 324.724 883.63 316.37 887.077 315.109 888.852 313.812 890.626 309.414 895.473 309.414 899.125 309.414 902.776 305.321 904.449 307.368 907.076 309.414 909.773 311.289 913.049 311.289 913.049ZM288.75 951.513C289.09 956.394 289.704 963.219 290.795 965.574 292.535 969.362 297.752 982.536 301.026 984.959 304.334 987.383 311.801 988.27 313.71 986.598 315.586 984.959 317.768 976.598 318.654 973.049 319.542 969.499 320.428 964.175 326.123 959.465 331.817 954.789 330.556 950.591 329.157 948.441 327.759 946.291 320.803 938.305 320.565 937.553 320.462 937.281 319.814 935.95 319.029 934.278 320.734 933.015 320.291 932.128 320.803 930.933 321.417 929.431 320.939 927.52 322.337 924.209 323.736 920.933 322.576 918.408 320.939 918.408 319.268 918.408 313.574 916.974 310.028 918.408 306.481 919.773 288.443 932.468 284.965 934.994 281.419 937.553 274.053 945.608 273.541 947.691 273.03 949.772 275.963 950.728 281.009 952.502 285.101 953.936 286.295 952.741 288.75 951.513ZM306.993 937.691C306.925 941.069 306.925 945.233 307.095 947.042 307.504 950.352 308.527 955.814 304.572 955.541 300.651 955.302 299.9 954.789 298.23 953.151 297.445 952.367 295.262 950.83 293.148 949.398 294.445 947.997 294.41 945.984 296.524 943.254 299.491 939.43 301.81 938.305 303.446 938.066 303.446 938.066 304.946 937.929 306.993 937.691ZM196.716 749.98C199.137 756.021 205.071 769.126 215.368 781.345L214.789 782.198C214.789 782.198 210.765 786.123 208.548 788.409 206.332 790.696 199.921 793.359 197.841 793.255 195.761 793.12 194.499 792.163 192.897 790.457 191.329 788.75 190.135 784.484 189.214 782.403 188.328 780.321 185.055 776.499 185.055 776.499L183.724 781.379 177.825 783.7 177.382 781.379 176.7 784.143C173.052 785.577 168.482 787.454 164.22 789.194L163.197 780.253C164.254 780.628 165.413 780.935 166.607 781.208 171.176 782.198 170.05 778.649 172.063 775.884 174.075 773.086 176.121 767.523 179.565 764.655 182.326 762.369 190.374 754.86 196.716 749.98ZM224.2 790.526C224.746 791.004 225.292 791.481 225.871 791.958 247.422 810.219 255.265 809.603 261.607 808.341 267.915 807.044 266.654 798.955 264.88 797.147 263.107 795.406 246.399 786.873 242.341 784.86 240.635 784.007 236.544 781.276 231.941 777.932 234.907 770.765 237.43 761.755 236.987 757.864 236.374 752.028 228.633 740.219 224.438 738.308 220.279 736.431 208.481 741.994 208.481 741.994 208.481 741.994 210.015 740.97 213.561 741.994 217.107 743.018 220.279 745.679 223.45 748.581 226.621 751.516 227.133 754.656 226.996 760.014 226.928 762.232 224.813 766.43 222.359 770.594 219.256 768.136 216.528 765.747 214.789 763.939 210.458 759.502 202.411 752.505 198.182 748.887 199.24 748.138 200.194 747.489 201.081 746.942 207.491 743.086 215.062 729.571 214.755 725.578 214.447 721.584 209.129 720.253 205.378 720.936 201.627 721.653 190.783 729.297 191.192 729.331 191.601 729.367 196.171 729.639 196.921 731.073 197.671 732.506 196.103 734.076 191.295 740.185 186.487 746.26 167.732 759.707 162.89 763.666 158.083 767.659 155.285 758.171 155.285 758.171 155.285 758.171 155.32 767.897 156.752 773.358 157.161 774.963 157.809 776.26 158.627 777.249 159.174 777.932 159.821 778.444 160.503 778.922L158.764 784.996C158.764 784.996 158.593 787.796 158.389 791.652 155.627 792.881 153.342 793.939 152.046 794.621 146.25 797.795 131.757 802.88 124.597 803.494 117.402 804.143 107.956 802.607 108.058 805.167 108.195 807.659 109.729 817.726 113.89 820.491 118.083 823.289 126.199 825.849 128.348 825.338 130.496 824.825 147.341 814.279 147.341 814.279L157.843 807.864C157.809 811.173 157.878 813.869 158.116 814.927 159.002 818.853 158.866 831.412 161.662 833.836 164.459 836.225 173.905 840.286 176.734 835.474 179.565 830.662 180.791 818.068 181.44 811.378 181.747 808.102 180.791 800.935 179.734 794.417L183.963 791.823 183.793 791.924 185.941 796.6C185.941 796.6 187.271 798.239 195.694 805.167 204.115 812.061 211.413 800.969 214.789 799.433 217.278 798.307 220.824 794.587 224.2 790.526ZM173.597 798.205 165.652 803.051C165.789 804.518 165.857 805.576 165.857 806.054 165.857 809.228 166.607 809.536 168.005 809.536 169.402 809.536 172.949 805.304 173.052 801.754 173.119 801.037 173.29 799.74 173.597 798.205ZM173.597 727.181C173.597 727.181 164.322 727.455 158.15 727.694 151.945 727.966 145.977 727.694 145.977 727.694L143.044 727.181C143.044 727.181 164.083 718.206 171.04 714.11 178.03 710.082 191.976 700.697 193.238 699.161 194.499 697.626 201.149 689.128 203.196 688.581 205.206 688.002 210.663 688.889 213.186 692.439 215.71 695.987 216.732 699.605 215.676 701.38 214.585 703.155 205.206 710.253 201.558 713.564 197.841 716.841 190.886 720.39 189.897 721.55 188.874 722.677 176.905 745.509 159.992 752.095 175.745 730.526 173.597 727.181 173.597 727.181ZM115.936 758.205C120.164 763.905 128.654 765.304 134.178 761.686 136.02 760.492 137.077 758.376 137.52 756.089 139.601 745.543 129.814 744.622 122.516 745.441 118.152 745.952 112.184 743.768 111.366 742.949 111.298 747.933 113.037 754.349 115.936 758.205ZM138.645 619.026C145.772 619.538 159.855 620.426 167.493 620.221 178.166 619.982 205.036 619.197 204.082 603.122 203.639 595.409 194.09 577.184 190.135 570.631 190.135 574.932 191.567 595.443 188.771 597.388 183.145 601.177 162.037 602.644 156.445 602.61L143.761 602.508C145.022 599.197 146.42 595.273 147.716 592.099 150 586.501 142.909 578.754 141.373 576.365 139.872 573.942 134.929 573.19 134.281 575.101 133.668 576.979 132.133 583.567 131.11 590.698 130.087 597.764 128.449 611.621 126.677 616.057 124.937 620.494 124.392 618.344 121.63 621.893 118.833 625.442 121.357 629.231 121.63 633.668 121.869 638.105 127.461 641.142 132.133 642.439 136.804 643.702 134.043 641.142 135.168 637.593 136.293 634.043 136.565 628.241 136.565 627.457ZM567.067 1102.67C862.297 1102.67 1101.64 863.118 1101.64 567.628 1101.64 272.137 862.297 32.5807 567.067 32.5807 271.837 32.5807 32.4954 272.137 32.4954 567.628 32.4954 863.118 271.837 1102.67 567.067 1102.67" fill-rule="evenodd" transform="matrix(1 0 0 -1 1633 1805)"/></g></svg>
