<svg viewBox="0 0 2290 460" xmlns="http://www.w3.org/2000/svg" xmlns:xlink="http://www.w3.org/1999/xlink" xml:space="preserve" overflow="hidden"><defs><clipPath id="clip0"><rect x="1029" y="917" width="2289" height="461"/></clipPath></defs><g clip-path="url(#clip0)" transform="translate(-1029 -917)"><path d="M11.4392 138.478 89.8405 28.2278 105.949 28.2278 105.949 145.47 95.8861 145.47 95.8861 34.0478 95.2237 34.0478 16.1325 145.47 0.06567 145.47 0.06567 28.2278 10.7767 28.2278 10.7767 138.478ZM136.37 28.2278 146.405 28.2278 146.405 114.563 136.37 114.563ZM136.37 133.224 146.405 133.224 146.405 146.05 136.37 146.05ZM253.917 83.0495 253.917 28.2278 244.531 28.2278 244.531 81.8911C244.958 100.179 235.807 109.116 217.049 108.716 198.291 107.571 187.345 98.6063 184.198 81.8911L184.198 28.2278 174.812 28.2278 174.812 113.956 184.198 113.956 184.198 96.4686C191.803 109.309 203.646 115.901 219.74 116.301 242.957 116.701 254.372 105.599 253.917 83.0495ZM353.353 68.4717 353.353 81.3116C351.587 98.4133 340.862 107.737 321.192 109.309 298.859 108.537 287.251 96.2759 286.354 72.5541 286.782 49.605 297.976 37.9646 319.854 37.5648 341.745 38.337 352.925 48.6393 353.353 68.4717ZM362.741 113.956 362.741 40.4748C364.077 12.4779 348.895-0.94119 317.189 0.230885 300.654 0.630702 288.355 4.71315 280.322 12.4779L285.677 17.7324C293.283 11.1398 303.773 7.62317 317.189 7.223 342.215 6.85091 354.278 16.5603 353.353 36.3927L353.353 48.0601C348.012 36.7925 335.948 31.1515 317.189 31.1515 290.37 31.9101 276.747 45.9224 276.291 73.1474 277.644 100.344 291.709 114.756 318.528 116.301 334.609 115.901 346.217 110.481 353.353 99.9718L353.353 113.956ZM400.532 80.1532 400.532 66.1272C401.443 45.1501 412.169 34.2546 432.708 33.4823 454.143 33.8825 464.866 46.3225 464.866 70.8162 463.983 95.2965 453.04 107.943 432.044 108.716 412.829 105.999 402.34 96.4686 400.532 80.1532ZM400.532 28.2278 390.497 28.2278 390.497 145.47 400.532 145.47 400.532 97.641C406.798 109.681 417.978 115.901 434.045 116.301 460.409 115.129 474.047 99.9718 474.943 70.8162 474.047 42.8056 461.1 28.4345 436.076 27.6623 417.744 27.2621 405.914 33.2756 400.532 45.7293ZM538.216 108.716C515.429 107.943 503.586 95.1312 502.703 70.2374 504.04 46.9017 515.883 34.4617 538.216 32.9172 560.552 33.6757 572.186 46.3225 573.069 70.8162 571.732 94.5239 560.108 107.157 538.216 108.716ZM537.556 27.0557C508.501 28.2278 493.317 42.4195 491.976 69.6301 493.317 99.572 509.188 114.936 539.556 115.736 567.271 114.563 581.791 99.7788 583.104 71.3817 582.678 42.2401 567.494 27.4555 537.556 27.0557ZM752.881 137.306 709.306 137.306 709.306 84.2219 752.881 84.2219C777.905 84.2219 790.398 93.5586 790.398 112.219 789.515 128.176 776.994 136.533 752.881 137.306ZM755.545 76.0574 709.306 76.0574 709.306 28.2278 699.27 28.2278 699.27 145.47 756.885 145.47C784.146 143.898 799.121 132.63 801.812 111.653 800.901 88.7042 785.483 76.8297 755.545 76.0574ZM865.747 108.716C842.961 107.943 831.118 95.1312 830.235 70.2374 831.572 46.9017 843.415 34.4617 865.747 32.9172 888.08 33.6757 899.717 46.3225 900.601 70.8162 899.264 94.5239 887.654 107.157 865.747 108.716ZM865.088 27.0557C836.029 28.2278 820.849 42.4195 819.508 69.6301 820.849 99.572 836.72 114.936 867.088 115.736 894.803 114.563 909.323 99.7788 910.636 71.3817 910.207 42.2401 895.026 27.4555 865.088 27.0557ZM933.715 28.2278 943.75 28.2278 943.75 145.47 933.715 145.47ZM1040.54 113.956 1051.26 113.956 1007.05 24.7249C999.444 6.85091 990.942-1.3003 981.57 0.230885 974.874 0.230885 969.506 1.21026 965.475 3.14054L966.815 8.39543C970.389 7.223 974.421 6.65785 978.878 6.65785 986.498 5.08524 993.413 12.2711 999.678 28.2278 1000.09 28.2278 1000.56 28.6276 1001 29.4002 1001.44 30.1725 1001.9 30.7657 1002.33 31.1515L961.471 113.956 972.183 113.956 1006.36 39.8956ZM1073.64 28.4482 1073.64 106.978 1058.23 106.978 1058.23 113.956 1073.64 113.956 1073.64 143.112 1083.71 143.126 1083.71 113.956 1103.81 113.956 1103.81 106.978 1083.71 106.978 1083.71 28.4482ZM1129.56 75.4641 1197.91 75.4641C1197.48 97.2408 1186.3 108.343 1164.42 108.716 1142.53 107.571 1130.9 96.4686 1129.56 75.4641ZM1197.91 55.0522 1207.98 52.7218C1202.62 35.6201 1188.32 27.2621 1165.08 27.6623 1135.14 28.4345 1119.5 42.6122 1118.16 70.2374 1119.5 99.3786 1134.91 114.756 1164.42 116.301 1193.02 115.529 1207.75 100.179 1208.63 70.2374 1208.63 69.437 1208.63 68.8718 1208.63 68.4717L1128.88 68.4717C1129.8 46.3225 1141.63 34.8478 1164.42 34.0478 1182.72 34.0478 1193.9 41.0677 1197.91 55.0522ZM1300.07 88.304 1310.11 90.6489C1304.3 106.978 1290.9 115.529 1269.9 116.301 1242.65 115.129 1228.35 99.9718 1227.02 70.8162 1227.44 42.4195 1241.96 28.0347 1270.56 27.6623 1293.81 27.2621 1307.42 36.7925 1311.45 56.2247L1301.39 58.5695C1299.16 42.6122 1289.13 34.4617 1271.25 34.0478 1249.35 34.8478 1238.17 47.2879 1237.74 71.3817 1238.17 95.9034 1249.35 108.343 1271.25 108.716 1285.98 107.943 1295.59 101.144 1300.07 88.304ZM1408.92 83.6564 1408.92 28.2278 1399.52 28.2278 1399.52 82.484C1399.98 100.744 1391.05 109.681 1372.72 109.309 1352.17 108.537 1341.21 98.0412 1339.87 77.8087L1339.87 28.2278 1329.83 28.2278 1329.83 145.47 1339.87 145.47 1339.87 97.0618C1346.59 109.116 1358.2 115.529 1374.72 116.301 1397.98 116.701 1409.35 105.792 1408.92 83.6564ZM1517.1 83.0495 1517.1 28.2278 1507.73 28.2278 1507.73 81.8911C1508.14 100.179 1498.99 109.116 1480.23 108.716 1461.47 107.571 1450.53 98.6063 1447.38 81.8911L1447.38 28.2278 1438.01 28.2278 1438.01 113.956 1447.38 113.956 1447.38 96.4686C1454.99 109.309 1466.83 115.901 1482.92 116.301 1506.14 116.701 1517.55 105.599 1517.1 83.0495ZM1545.52 28.2278 1555.55 28.2278 1555.55 114.563 1545.52 114.563ZM1545.52 133.224 1555.55 133.224 1555.55 146.05 1545.52 146.05ZM1651.68 88.304 1661.71 90.6489C1655.91 106.978 1642.5 115.529 1621.5 116.301 1594.26 115.129 1579.96 99.9718 1578.62 70.8162 1579.05 42.4195 1593.57 28.0347 1622.17 27.6623 1645.42 27.2621 1659.02 36.7925 1663.07 56.2247L1652.99 58.5695C1650.77 42.6122 1640.73 34.4617 1622.86 34.0478 1600.95 34.8478 1589.77 47.2879 1589.34 71.3817 1589.77 95.9034 1600.95 108.343 1622.86 108.716 1637.59 107.943 1647.19 101.144 1651.68 88.304" fill-rule="evenodd" transform="matrix(1 0 0 -1 1616 1363)"/><path d="M492.262 94.3688C492.262 94.3688 486.105 89.8318 487.195 84.0359 487.955 80.0249 488.838 76.0963 489.321 73.6896M1649.39 107.772C1649.39 107.772 1648.86 100.814 1653.19 99.0716 1657.54 97.3285 1662.05 94.8944 1662.41 93.276 1662.79 91.6439 1662.07 83.4828 1658.99 82.2101 1655.9 80.9515 1655.94 73.8833 1655.94 73.8833L1655.94 41.9865C1655.94 41.9865 1660.29 37.809 1664.77 37.4496 1669.24 37.0901 1712.34 43.6187 1712.34 43.6187 1712.34 43.6187 1719.57 49.9539 1721.2 52.8588 1722.83 55.7495 1724.46 87.4663 1724.46 87.4663 1724.46 87.4663 1730.07 70.4391 1730.07 68.9728 1730.07 67.5343 1730.07 58.2945 1732.95 53.7576 1735.85 49.2343 1738.93 45.4448 1739.11 41.4334 1739.29 37.4358 1734.58 29.4821 1727.17 27.2969 1719.76 25.1251 1669.24 20.0488 1669.24 20.0488 1669.24 20.0488 1644.33 16.0652 1639.62 39.9808 1634.93 63.9105 1640.74 99.5419 1640.74 99.5419L1642.7 113.747ZM481.301 68.4612 481.412 69.1805C483.041 77.7841 482.488 87.66 483.579 89.1126 484.669 90.5648 491.489 93.7185 491.489 93.7185M36.6693 181.054C36.6693 181.054 34.8751 190.474 29.8087 188.302 24.7286 186.13 16.9573 177.79 16.2388 173.806 15.5203 169.822 9.00692 157.498 8.27511 151.329 7.55665 145.16 5.38792 140.637 4.11951 137.193 2.84786 133.749 0.321521 121.604 0.142537 115.269-0.0360854 108.92 0.503753 99.1406 3.56596 94.9634 6.65957 90.8 16.5722 88.0888 18.3938 88.0888 20.2154 88.0888 26.3716 89.5273 27.2687 94.4241 28.1795 99.3205 28.8979 114.287 29.6297 126.321 29.9325 131.619 29.8636 137.303 29.6712 142.698 33.0947 142.822 38.3808 143.486 43.0485 142.684 49.4107 141.605 55.5254 140.513 56.9756 141.605 58.4263 142.684 96.111 159.905 110.231 164.608 124.368 169.325 139.635 175.3 147.407 175.3 155.178 175.3 147.943 168.965 147.943 168.965L127.874 151.357 77.5985 109.611C65.5066 106.417 54.5319 103.456 54.5319 103.456L46.3997 100.469C45.214 99.099 45.4889 96.3882 46.7606 93.94 48.029 91.4914 60.5918 79.4299 62.7605 78.5308 64.9397 77.6179 72.9893 79.8866 74.8798 82.0718 75.7494 83.0677 83.4519 86.5813 92.7976 90.2881L88.5457 83.4413C88.5457 83.4413 87.4563 49.428 87.8139 39.0264 88.1711 28.6386 79.6265 25.0839 71.7176 23.9911 63.8088 22.8983 36.6693 23.092 36.6693 23.092 36.6693 23.092 53.8135 17.1024 62.317 14.3916 70.8068 11.6666 81.1182 2.24699 87.6349 0.434947 94.1483-1.37709 96.8706 2.96624 104.642 7.86265 112.4 12.7594 116.39 23.2578 116.39 23.2578 116.39 23.2578 118.198 57.8794 118.377 63.6891 118.569 69.4847 120.738 78.3234 122.367 82.1686 123.993 86.0141 116.569 88.0888 112.052 90.3159 109.942 91.3671 107.512 93.3035 105.525 95.0602 112.895 97.6468 119.937 99.7771 124.437 100.469 137.549 102.447 146.231 101.907 147.585 102.544 148.952 103.18 147.585 113.07 143.887 116.597 140.172 120.124 133.933 126.736 130.056 126.196 126.162 125.657 113.407 118.312 108.519 117.496 105.965 117.067 91.3196 113.249 77.9286 109.708 82.8438 112.751 106.918 127.635 110.231 129.087 113.946 130.719 138.006 138.354 147.228 143.223 156.448 148.092 180.509 155.368 187.369 157.18 194.244 158.992 198.054 161.537 194.975 168.232 191.897 174.94 169.838 191.428 162.605 193.254 155.371 195.053 125.887 188.635 125.887 188.635L112.675 183.558 112.675 191.788C112.675 192.881 120.102 195.053 120.999 199.229 121.897 203.393 117.562 213.726 113.407 217.889 109.237 222.053 101.645 226.963 92.7839 228.775 83.9195 230.573 81.5754 231.127 80.3034 225.317 79.0354 219.521 78.3169 211.748 81.7541 207.197 85.1912 202.66 89.3468 196.782 90.2576 192.701 91.1547 188.635 88.2707 188.635 86.4596 188.635 84.6517 188.635 71.0818 177.292 71.0818 177.292L86.8205 183.088 94.7704 183.088 94.7704 176.697 53.3599 160.804 29.214 151.592C29.0217 154.939 28.829 157.955 28.7189 160.389 28.3581 168.37 26.3716 174.346 29.4374 176.697 32.5137 179.063 36.6693 181.054 36.6693 181.054ZM1598.76 55.3897C1591.51 45.97 1580.67 31.8339 1580.67 31.8339 1580.67 31.8339 1575.16 30.921 1573.62 30.3817 1572.08 29.8419 1568.54 28.7495 1568.36 25.1251 1568.19 21.5014 1572.08 14.2532 1572.08 14.2532 1572.08 14.2532 1579.06 10.8228 1583.56 14.2532 1588.06 17.6836 1610.85 45.7905 1615.76 52.1254 1620.67 58.4744 1630.58 71.9881 1632.94 77.8256 1634.54 81.7954 1638.47 93.0408 1640.84 99.8186L1650.85 105.586C1650.85 105.586 1660.8 108.671 1664.59 110.663 1668.39 112.668 1670.39 108.311 1668.57 116.016 1666.76 123.72 1664.18 124.841 1659.54 126.819 1656.08 128.285 1652.13 130.872 1649.23 129.627 1650.39 130.816 1651.23 132.255 1653.21 134.053 1657 137.483 1653.21 137.967 1653.21 140.747 1653.21 143.542 1645.97 146.184 1642.71 145.824 1639.45 145.465 1637.29 144.316 1631.13 144.316 1624.99 144.316 1618.83 141.84 1615.76 140.568 1612.69 139.295 1611.24 134.412 1611.6 131.508 1611.96 128.603 1618.83 126.611 1618.83 126.611L1598.76 107.772 1621.91 120.871 1629.68 124.979C1629.68 124.979 1638.19 125.173 1644 126.819 1645.56 127.261 1646.68 127.731 1647.55 128.271 1647.24 127.87 1646.95 127.386 1646.69 126.819 1644 120.871 1626.05 107.772 1623.36 107.772 1620.67 107.772 1583.56 93.276 1583.56 93.276L1574.16 93.6354C1574.16 93.6354 1569.45 92.4043 1574.16 85.115 1578.87 77.8256 1589.35 70.9784 1594.05 71.5182 1598.76 72.0575 1610.88 82.5558 1610.88 82.5558L1612.98 83.7733C1611.89 81.2141 1611.02 79.0289 1610.69 77.8256 1609.43 73.3302 1598.76 55.3897 1598.76 55.3897ZM1593.71 162.27C1598.44 164.497 1607 168.522 1615.8 172.644 1613.17 174.581 1609.61 176.987 1609.61 176.987 1609.61 176.987 1619.74 176.987 1621.55 180.252 1623.36 183.516 1627.51 188.04 1621.55 192.397 1615.59 196.74 1609.61 204.168 1609.61 204.168 1609.61 204.168 1605.28 211.416 1613.05 211.416 1620.84 211.416 1625.35 207.612 1632.59 206.533 1639.82 205.44 1642.18 201.595 1643.44 199.354 1644.7 197.114 1643.44 189.132 1643.44 187.32 1643.44 186.836 1643.27 186.089 1643.02 185.273 1652.67 189.589 1658.09 186.407 1660.44 189.589 1662.79 192.757 1661.35 195.121 1664.43 195.301 1667.49 195.467 1669.12 196.38 1678.52 189.589 1687.94 182.783 1690.1 182.382 1689.39 177.97 1688.65 173.543 1688.47 167.748 1681.96 167.748 1675.46 167.748 1668.58 160.5 1663.52 160.5 1658.45 160.5 1651.56 154.884 1647.78 153.791 1644 152.712 1626.2 148.341 1626.2 148.341 1626.2 148.341 1637.47 160.5 1639.73 161.952 1641.99 163.391 1649.41 169.684 1649.77 171.884 1650.13 174.097 1652.64 175.715 1648.32 176.269 1644 176.808 1641.99 176.033 1636.39 171.884 1630.77 167.748 1618.3 157.775 1616.49 156.516 1614.68 155.244 1611.97 152.892 1606.55 155.064 1603.92 156.101 1599.99 157.401 1596.61 158.466 1598.4 153.432 1598.76 153.584 1598.76 142.739 1598.76 131.867 1597.33 125.698 1594.43 122.987 1591.53 120.262 1586.64 120.082 1584.3 122.987 1581.95 125.878 1577.96 131.314 1577.6 136.031 1577.24 140.747 1576.88 143.459 1579.6 150.527 1582.3 157.595 1581.95 167.748 1581.95 167.748L1584.3 167.748C1584.3 167.748 1589.98 165.493 1593.71 162.27ZM1529.15 137.829C1529.15 137.829 1540.63 138.742 1543.26 135.837 1545.88 132.946 1545.24 131.494 1548.32 128.312 1551.38 125.145 1554.01 124.785 1552.93 121.065 1551.84 117.357 1549.29 113.955 1549.22 112.558 1549.22 112.378 1549.08 111.894 1548.87 111.161 1551.1 111.036 1553.08 110.967 1554.2 110.995 1557.72 111.092 1561.34 114.619 1560.17 118.52 1558.99 122.42 1559.1 125.685 1557.63 129.212 1556.16 132.753 1552.48 132.932 1552.3 136.28 1552.12 139.641 1550.57 146.806 1546.24 148.341 1541.9 149.877 1536.3 148.341 1531.77 148.341 1527.24 148.341 1522.37 151.052 1522.37 151.869 1522.37 152.685 1522.37 157.581 1522.37 157.581 1522.37 157.581 1540.08 167.9 1546.41 174.249 1552.75 180.598 1566.13 198.704 1566.13 198.704 1566.13 198.704 1572.46 201.069 1578.62 196.712 1584.76 192.369 1591.46 190.696 1589.65 184.581 1587.84 178.454 1574.63 165.548 1571.19 161.565 1567.76 157.581 1565.95 144.344 1569.57 135.104 1573.18 125.85 1580.79 114.619 1580.41 109.736 1580.06 104.84 1570.48 97.5778 1564.24 97.3979 1558 97.2317 1547.69 97.3979 1547.69 97.3979L1545.13 98.2555C1543.13 90.7584 1541.16 81.7123 1541.16 74.6856 1541.16 60.5491 1542.08 58.4607 1542.08 58.4607 1542.08 58.4607 1546.15 62.4442 1549.67 66.8013 1553.18 71.1446 1555.36 77.3137 1555.36 77.3137L1557.8 75.1281C1557.8 75.1281 1555.91 69.1527 1554.74 65.8884 1553.55 62.6241 1552.02 59.5394 1551.66 55.4728 1551.3 51.3921 1551.21 30.3676 1550.47 24.9314 1549.76 19.4953 1540.89 14.7788 1536.01 19.8555 1531.14 24.9314 1529.15 34.531 1529.15 48.4876 1529.15 62.4442 1529.15 116.016 1529.15 116.016ZM1364.3 81.8229C1364.3 81.8229 1367.73 74.0216 1373.88 67.3132 1380.03 60.6185 1388.36 56.8145 1392.87 58.7927 1397.4 60.798 1400.11 65.1691 1404.54 66.5939 1405.34 66.8428 1406.84 67.4927 1408.84 68.3781 1409.77 65.7222 1411.09 59.4285 1408.21 49.3037 1404.28 35.4439 1404.54 35.0566 1404.54 31.4325 1404.54 27.8088 1399.4 25.2634 1399.4 25.2634 1399.4 25.2634 1380.22 19.1084 1369.32 19.1084 1358.43 19.1084 1364.3 19.8273 1354.53 20.9201 1344.76 22.0133 1345.66 32.5253 1345.66 32.5253 1345.66 32.5253 1345.66 28.9012 1345.66 23.4655 1345.66 18.0156 1350.55 15.8579 1358.51 11.5008 1366.47 7.15749 1369.32 7.43384 1384.11 7.43384 1398.91 7.43384 1404.54 7.43384 1412.16 7.43384 1419.79 7.43384 1425.06 14.7651 1427.23 18.3888 1429.4 22.0133 1431.22 34.3374 1431.22 49.3037 1431.22 58.5712 1429.83 69.2495 1428.43 77.4105 1434.95 80.3565 1441.19 82.9987 1444.79 83.9947 1454.01 86.526 1460.51 85.4332 1461.42 88.6975 1462.32 91.9618 1463.95 93.5939 1461.42 96.7617 1458.9 99.9429 1451.85 103.11 1441.53 99.9429 1437.8 98.7948 1430.39 96.3051 1422.43 93.5939 1419.64 96.0425 1415.81 98.4354 1412.85 100.137 1413.94 101.271 1416.35 103.498 1420.19 105.545 1425.6 108.45 1444.79 133.348 1444.79 133.348 1444.79 133.348 1434.66 142.158 1427.25 145.063 1419.83 147.954 1408.21 142.158 1408.21 142.158 1408.21 142.158 1380.94 121.687 1378.94 120.954 1376.96 120.235 1369.32 122.766 1369.32 122.766L1364.3 121.493C1364.3 121.493 1363.94 117.275 1369.32 114.979 1374.71 112.668 1373.34 109.21 1376.42 102.64 1379.5 96.0836 1382.56 98.3108 1386.63 99.2099 1390.71 100.109 1389.08 105.725 1390.88 109.21 1392.69 112.668 1402.47 127.289 1407.05 130.373 1411.64 133.458 1414.77 132.919 1414.77 132.919 1414.77 132.919 1412.16 117.275 1408.21 111.534 1404.28 105.78 1397.94 101.202 1397.94 101.202 1397.94 101.202 1399.4 96.7617 1402.09 96.7617 1403.64 96.7617 1406.72 94.1195 1409.05 91.865L1408.94 88.9601C1399.83 85.8205 1392.51 83.2614 1392.51 83.2614 1392.51 83.2614 1384.19 79.7619 1379.5 79.7619 1374.79 79.7619 1364.3 81.8229 1364.3 81.8229ZM1334.38 126.971C1339.46 134.91 1351.91 151.011 1376.14 164.76 1373.02 165.396 1366.42 166.946 1363.04 169.518 1358.51 172.962 1354.36 179.519 1354.54 189.464 1354.72 199.396 1359.6 199.396 1359.6 199.396 1359.6 199.396 1367.56 191.746 1371.9 189.464 1376.24 187.168 1377.87 189.464 1377.87 189.464L1378.59 184.208C1378.59 184.208 1379.23 181.483 1382.93 179.491 1386.63 177.499 1380.39 173.875 1380.39 172.423 1380.39 171.441 1379.22 168.093 1378.48 166.06 1382.89 168.467 1387.68 170.791 1392.87 172.962 1401.97 176.794 1409.89 179.851 1416.82 182.272L1414.77 181.926 1441.53 219.355C1441.53 219.355 1438.63 224.072 1437.91 226.617 1437.2 229.148 1441.35 234.584 1447.32 230.601 1453.29 226.617 1464.14 218.816 1466.67 214.279 1469.21 209.756 1471.74 209.618 1469.21 206.976 1466.67 204.32 1463.23 204.32 1460.35 203.047 1458.33 202.162 1451.66 194.803 1447.81 190.418 1455.32 191.359 1459.82 190.667 1462.87 189.644 1470.26 187.168 1481.69 172.783 1483.68 168.619 1485.66 164.442 1487.47 162.27 1483.68 160.292 1479.86 158.287 1440.44 146.695 1440.44 146.695 1440.44 146.695 1461.25 163.916 1462.87 166.448 1464.5 168.979 1467.92 170.1 1462.14 176.006 1456.36 181.926 1450.39 181.926 1449.12 181.926 1447.85 181.926 1415.87 177.14 1399.4 169.892 1384.6 163.377 1351.02 142.463 1338.69 123.499 1342.63 119.045 1343.67 110.469 1345.32 96.7617 1347.13 81.643 1341.34 66.4003 1339.53 64.0485 1337.71 61.6972 1331.39 64.0485 1325.51 70.9373 1319.63 77.8115 1321.08 87.0654 1322.17 94.8529 1323.24 102.654 1328.85 130.373 1328.85 130.373 1328.85 130.373 1331 129.364 1334.38 126.971ZM1396.86 208.123C1396.86 208.123 1392.88 210.116 1390.53 211.388 1388.18 212.661 1385.82 208.663 1386.91 205.413 1388 202.148 1388 198.344 1394.32 192.715 1400.66 187.099 1406.26 185.466 1409.16 189.091 1412.05 192.715 1413.14 199.064 1411.15 202.688 1409.16 206.312 1403.91 207.584 1403.91 207.584ZM1211.55 101.603C1222.49 100.068 1242.19 96.8997 1253.05 92.8609 1268.64 87.0513 1279.3 77.0923 1281.11 67.6726 1282.92 58.2392 1278.23 49.9124 1273.88 49.3593 1269.55 48.8196 1264.48 52.0839 1260.5 55.8879 1256.52 59.6915 1252.54 66.0405 1245.13 65.3075 1237.71 64.5882 1234.81 64.5882 1234.81 64.5882L1242.61 73.1087C1242.61 73.1087 1225.18 86.2493 1211.08 93.9122 1210.4 82.321 1209.93 72.5 1210.04 68.3919 1210.4 55.1545 1210.77 39.9393 1213.12 33.2309 1215.46 26.522 1212.09 20.1871 1207.44 13.2988 1202.8 6.41042 1203.54 7.30957 1201.55 7.68275 1199.55 8.04255 1190.63 16.9229 1189.08 21.0863 1187.52 25.2634 1185.96 26.3421 1187.52 31.0594 1189.08 35.7759 1192.85 49.3593 1192.13 61.8633 1191.83 67.1195 1191.65 73.4407 1191.55 78.9874 1188.89 75.377 1186.65 72.3064 1185.37 70.5084 1179.94 62.8868 1164.39 51.2953 1157.51 46.2193 1150.64 41.1426 1146.66 36.7997 1143.76 41.5162 1140.88 46.2193 1138.71 46.5788 1134.36 46.5788 1130.03 46.5788 1123.87 49.4836 1125.32 52.7479 1126.77 56.0121 1134.72 61.8081 1137.98 62.5273 1141.24 63.2603 1146.3 61.0747 1152.8 67.6036 1159.32 74.1322 1181.66 102.945 1185.37 109.003 1189.08 115.061 1189.08 125.242 1189.08 127.773 1189.08 130.318 1180.66 127.054 1176.33 129.226 1171.98 131.397 1163.85 139.558 1162.22 141.55 1160.59 143.542 1160.91 145.354 1161.94 145.81 1162.98 146.267 1165.46 145.893 1165.46 145.893 1165.46 145.893 1172.69 145.893 1188.99 153.141 1189.9 153.556 1190.84 153.985 1191.79 154.455 1194.2 162.091 1197.38 173.115 1197.38 178.523 1197.38 187.279 1193.97 210.475 1189.08 216.271 1184.18 222.067 1191.77 226.783 1199.18 224.238 1206.61 221.707 1225.59 211.914 1227.04 206.298 1228.49 200.682 1224.88 197.114 1223.07 187.818 1222.31 183.917 1220.82 177.375 1219.34 171.109 1225.54 175.342 1229.86 178.523 1229.86 178.523 1229.86 178.523 1249.03 172.354 1252.28 167.278 1255.55 162.201 1247.58 156.406 1243.61 154.593 1239.62 152.781 1223.34 140.817 1223.34 140.817L1213.23 108.201 1211.86 106.375ZM1247.13 208.566C1247.13 208.566 1242.32 209.825 1241.43 209.009 1240.52 208.193 1237.71 207.474 1237.63 205.025 1237.53 202.577 1237.76 198.773 1240.07 196.961 1242.38 195.149 1247.13 192.424 1247.13 192.424 1247.13 192.424 1247.49 190.529 1246.04 189.077 1244.59 187.625 1237.6 184.913 1237.6 184.913 1237.6 184.913 1248.25 183.917 1250.65 183.364 1253.05 182.825 1258.97 177.928 1264.12 176.296 1269.29 174.664 1274.53 180.197 1275.17 185.273 1275.78 190.349 1273.54 200.668 1269.29 203.476 1265.03 206.298 1262.4 207.653 1258.87 208.469 1255.35 209.286 1247.13 208.566 1247.13 208.566ZM1044.82 51.7103C1048.95 48.1415 1054.6 42.83 1056.68 38.7775 1060.12 32.0687 1061.57 27.6979 1065.55 24.0879 1069.53 20.4638 1076.2 17.0338 1081.45 19.1915 1086.71 21.3767 1089.38 37.5048 1083.99 44.0337 1081 47.6578 1072.34 57.5474 1061.15 66.8566 1067.36 73.759 1079.46 88.7943 1078.56 103.29 1077.65 117.786 1073.5 136.626 1061.38 134.634 1049.26 132.642 1043.3 127.469 1043.3 127.469L1045.34 147.373C1054.88 151.094 1064.49 154.842 1067.9 156.198 1075.49 159.213 1081.45 160.735 1081.45 163.308 1081.45 165.867 1081.45 167.25 1081.45 167.25 1081.45 167.25 1080.37 173.046 1072.23 176.365 1064.1 179.671 1057.22 176.365 1057.22 176.365L1047.7 170.459 1052.16 213.836C1052.16 213.836 1054.86 228.706 1043.12 229.425 1031.36 230.144 1031.18 231.597 1024.48 225.621 1017.8 219.632 1019.51 211.845 1019.51 211.845 1019.51 211.845 1023.76 212.48 1025.85 212.647 1027.92 212.827 1030.54 213.836 1030.54 213.836 1030.54 213.836 1032.07 186.255 1032.75 161.192 1021.03 153.971 1008.69 146.419 1004.77 144.247 996.638 139.71 992.111 135.893 992.111 135.893 992.111 135.893 985.305 129.129 976.331 120.359 976.761 126.93 977.187 133.237 977.575 138.922 988.852 145.561 1005.68 155.825 1005.68 155.825 1005.68 155.825 1010.94 166.337 1005.68 169.781 1000.45 173.225 992.661 176.31 992.661 176.31 992.661 176.31 990.121 177.001 981.745 173.405 984.683 183.683 989.279 195.772 989.942 198.427 990.853 202.051 987.416 207.487 976.029 213.643 964.627 219.812 962.874 217.087 962.874 217.087 962.874 217.087 962.087 196.062 962.816 176.365 962.916 173.585 962.861 169.269 962.706 163.916 947.328 156.143 927.726 146.405 927.726 146.405 927.726 146.405 944.197 131.356 950.339 130.277 953.859 129.654 957.726 130.166 961.204 131.079 960.719 122.199 960.166 112.973 959.616 104.231 947.15 92.3631 935.457 81.6986 933.69 81.6986 929.716 81.6986 920.12 77.6594 920.12 77.6594 920.12 77.6594 918.865 65.1829 920.12 61.6003 921.392 58.0041 927.726 53.3981 933.154 53.3981 934.023 53.3981 934.934 53.647 935.845 54.0758L957.753 24.0879C957.753 24.0879 967.869 29.1364 971.859 37.4911 975.836 45.8454 971.859 49.4561 971.859 49.4561 971.859 49.4561 973.447 75.4464 975.186 102.682L1000.06 135.893 1021.96 138.258 1033.05 142.574C1033.1 132.988 1032.83 125.408 1032.07 122.489 1029.19 111.258 1019.51 109.266 1026.29 106.734 1033.07 104.189 1038.05 101.465 1040.76 108.546 1043.48 115.615 1051.25 122.489 1054.86 122.489 1058.5 122.489 1060.3 119.418 1061.02 110.718 1061.74 102.018 1059.03 95.6689 1057.22 92.7778 1055.42 89.8734 1055.42 85.7237 1052.52 81.6986 1050.1 78.3234 1047.06 77.77 1046.11 77.6732 1041.2 80.6333 1036.1 83.0818 1030.99 84.6309 1007.13 91.8787 997.287 92.5983 990.079 88.6144 982.889 84.6309 981.081 71.8501 982.171 65.1829 983.246 58.5297 984.532 50.2025 999.924 45.901L999.924 45.901C1000.77 45.4997 1001.7 45.154 1002.78 44.9192 1008.01 43.8401 1017.37 39.1232 1028.15 42.0281 1033.11 43.3557 1039.14 47.229 1044.82 51.7103ZM999.978 54.2832 995.187 55.9984C995.187 55.9984 988.852 61.6972 988.949 67.5895 989.031 73.4823 991.365 82.459 1000.5 81.3666 1009.65 80.2875 1028.47 65.335 1030.82 63.5229 1031.19 63.2325 1031.67 62.8452 1032.23 62.389L1029.91 59.7887C1029.91 59.7887 1018.79 56.3997 1009.65 54.8919 1005.65 54.242 1002.39 54.1589 999.978 54.2832ZM958.042 79.7897 945.631 63.2187C945.631 63.2187 945.245 62.6931 944.582 61.8633 949.552 61.061 956.674 59.7746 956.674 59.7746 956.674 59.7746 957.241 67.8525 958.042 79.7897ZM723.895 50.8946C722.087 50.8946 716.841 54.2138 713.225 54.2138 709.608 54.2138 704.363 55.2513 704.901 50.8946 705.453 46.5513 721.369 36.5782 723.895 33.4935 726.421 30.4091 733.476 27.3385 737.286 30.4091 741.081 33.4935 766.219 47.4501 803.835 54.3247 841.451 61.1856 861.386 61.7665 870.938 59.2352 880.504 56.6898 884.092 57.9073 880.504 65.1829 876.915 72.4585 875.644 75.3911 867.872 77.2859 861.73 78.78 839.739 75.4739 830.767 74.0079L831.927 105.932C841.547 114.218 856 127.538 856 127.538 856 127.538 865.043 130.443 869.391 130.443 873.726 130.443 875.712 134.426 878.252 137.331 880.779 140.236 881.676 142.186 878.252 147.484 874.815 152.768 862.874 163.308 859.259 163.308 855.643 163.308 849.858 150.568 849.858 150.568L832.865 132.67C833.528 151.716 834.066 168.522 834.066 171.953 834.066 180.612 843.702 188.537 845.249 193.6 846.779 198.676 843.162 201.318 842.348 202.037 841.533 202.757 817.294 219.701 814.216 222.149 811.151 224.598 808.611 222.606 808.253 221.071 807.893 219.521 810.061 208.387 810.061 208.387L812.035 110.732 794.421 92.1832C793.965 97.8682 793.661 102.765 793.786 104.895 794.145 111.451 793.758 136.446 793.758 142.186 793.758 147.926 804.581 150.195 793.758 155.271 782.935 160.348 756.528 162.893 753.988 162.893 751.462 162.893 748.922 166.185 753.988 154.192 759.055 142.186 764.121 133.237 765.57 123.748L766.578 117.067C764.121 114.799 761.305 112.53 759.786 112.53 756.708 112.53 749.474 113.955 742.062 112.24 734.635 110.538 733.2 115.767 729.583 108.699 725.952 101.63 732.468 91.7544 735.726 85.046 738.983 78.3234 751.062 75.3496 754.361 78.6139 757.646 81.8781 762.133 89.3062 762.133 89.3062L769.367 98.1861 774.515 63.2881C759.966 60.3002 746.783 57.3816 741.799 55.6111 728.52 50.8946 723.895 50.8946 723.895 50.8946ZM812.835 70.7573C808.17 69.886 802.648 68.8348 796.768 67.7004 796.409 71.1446 795.732 77.6732 795.111 84.382 799.584 86.9133 806.472 90.7722 812.366 93.9537ZM631.918 104.895 640.228 91.5745 640.228 86.2215 631.918 86.2215C631.918 86.2215 642.216 79.0564 644.756 74.9761 647.282 70.8957 652.169 64.8372 658.85 65.1966 665.559 65.5701 670.253 75.709 668.624 85.046 666.995 94.3688 666.995 98.0066 661.749 100.178 656.517 102.364 653.439 104.895 648.014 104.895 642.589 104.895 631.918 104.895 631.918 104.895ZM569.151 96.9138C571.691 94.3688 574.217 87.4942 574.217 87.4942L585.426 87.4942 579.545 74.9761C579.545 74.9761 579.104 61.2131 577.295 58.3082 575.487 55.4175 564.333 52.5127 561.669 55.4175 558.991 58.3082 553.607 60.1481 553.235 67.5621 552.876 74.9761 552.047 88.7806 556.851 91.5745 561.669 94.3688 560.841 98.5459 569.151 96.9138ZM581.05 157.166C586.295 157.761 592.134 158.688 593.929 159.988 597.422 162.519 616.361 173.53 620.337 176.186 624.312 178.841 628.301 180.764 632.457 178.468 636.612 176.186 651.451 165.064 650.54 161.8 649.643 158.535 639.331 150.748 636.252 145.672 633.174 140.596 630.469 133.527 630.469 133.527L630.289 129.544C630.289 129.544 637.882 128.99 637.882 125.546 637.882 122.102 635.714 115.947 632.815 114.674 629.917 113.415 626.479 114.674 620.695 114.674 616.72 114.674 604.406 110.068 597.063 107.177 598.374 101.298 595.724 97.4669 593.929 94.3688 591.941 90.8968 589.236 90.3849 587.234 94.3688 585.246 98.3386 580.374 94.9912 575.487 103.622 570.6 112.254 566.252 136.598 566.072 142.947 565.893 149.296 558.991 161.62 562.828 166.323 566.652 171.04 569.689 169.228 574.397 166.323 577.116 164.649 579.476 161.205 581.05 157.166ZM593.791 124.343C596.249 126.404 598.623 128.617 599.906 130.401 603.344 135.16 605.87 141.232 604.6 144.579 603.344 147.926 597.187 147.926 591.762 147.926L583.079 147.926C583.438 140.582 585.426 137.691 587.414 133.348 589.346 129.156 592.438 126.473 593.791 124.343ZM481.177 34.7524C479.258 32.7605 477.988 29.8557 473.654 30.3954 469.305 30.9485 465.15 31.1284 462.804 34.7524 460.443 38.3762 456.84 39.8425 458.635 45.2649 459.463 47.7127 463.922 52.7204 468.877 57.5753 467.745 63.8549 466.351 72.9288 466.572 78.2266 466.931 86.927 469.471 116.292 481.77 135.685 494.07 155.078 501.662 165.949 502.932 166.849 504.188 167.761 504.188 171.012 504.188 171.012 504.188 171.012 498.225 170.127 494.967 169.214 491.709 168.301 490.081 165.576 485.926 165.576 481.77 165.576 475.255 167.941 472.908 169.753 470.548 171.565 470.009 173.917 470.009 175.19 470.009 176.462 470.189 179.533 470.189 179.533 470.189 179.533 483.938 178.08 490.812 180.086 497.687 182.064 533.674 199.285 533.674 199.285 533.674 199.285 538.92 207.806 543.075 208.359 547.243 208.898 558.991 202.729 558.991 197.293 558.991 191.871 537.65 186.214 531.686 182.617 525.723 179.021 511.974 168.301 506.729 160.14 501.483 151.993 485.746 123.541 479.603 101.423 475.863 88.0198 476.194 74.0079 477.036 65.0586 478.665 66.4556 480.142 67.6173 481.301 68.4612 482.24 69.1389 482.971 69.5815 483.413 69.7336 484.021 69.9272 486.174 71.4072 489.321 73.6896 492.924 76.3177 497.797 79.9971 503.098 84.0359L503.112 87.66C503.112 87.66 502.932 143.486 503.112 146.557 503.291 149.641 510.525 146.557 510.525 146.557 510.525 146.557 516.764 140.941 520.657 136.418 524.55 131.881 519.925 129.544 519.207 125.532 518.49 121.535 512.775 120.276 510.897 115.006 509.006 109.736 514.873 108.865 517.22 104.701 518.793 101.921 519.553 99.7908 520.74 97.6468 525.378 101.257 529.574 104.535 532.722 106.997L532.722 129.544C532.722 131.729 532.805 153.805 530.25 158.522 527.697 163.238 523.017 169.85 524.094 173.751 525.184 177.638 527.904 175.743 531.879 175.563 535.855 175.383 538.395 174.29 540.204 172.658 541.998 171.026 541.46 165.949 541.28 164.138L540.921 127.358 547.975 127.358C547.975 127.358 548.334 122.462 545.187 118.478 542.026 114.48 543.089 113.042 544.538 109.044 545.988 105.061 544.538 97.9925 544.538 94.3688 544.538 90.731 541.501 81.5046 541.501 70.2592 541.501 59.0279 541.501 48.6953 541.501 40.0083 541.501 31.2942 538.036 20.6022 535.676 15.8991 533.329 11.1826 527.131 15.8991 527.131 15.8991 527.131 15.8991 518.145 41.9587 515.784 44.1721 513.437 46.3851 512.775 55.5833 512.775 55.5833 512.775 55.5833 513.023 57.3957 519.58 53.4118 526.137 49.428 523.017 45.6243 523.942 43.0793 524.867 40.548 529.712 42.7195 529.892 45.6243 530.071 48.5154 529.892 61.1856 528.801 66.4556 527.725 71.7255 532.722 77.77 532.722 83.6764L532.722 95.7517 492.262 50.6869C492.262 50.6869 478.029 31.4051 481.177 34.7524ZM292.529 67.8941C294.793 69.9828 298.865 73.095 303.338 73.3302 310.116 73.6896 325.494 73.3302 335.35 69.6646 339.588 68.0877 345.399 66.7045 351.929 64.9062 352.371 66.0683 352.619 67.147 352.619 68.0599 352.619 73.8695 357.768 78.7522 357.768 86.0004 357.768 93.2482 357.782 96.2636 352.619 99.0578 347.456 101.838 323.948 99.7771 323.948 99.7771 323.948 99.7771 325.397 106.126 327.385 108.118 329.373 110.11 332.451 114.84 331.36 121.369 330.96 123.803 330.85 126.224 330.891 128.285 325.742 125.09 321.408 122.226 320.151 120.608 318.177 118.077 311.842 112.392 307.189 108.325 306.927 106.734 306.527 105.199 305.947 103.747 303.49 97.6605 296.657 78.3097 292.529 67.8941ZM367.5 59.9129C371.53 58.3502 375.575 56.524 379.482 54.2969 395.398 45.2371 403.266 41.0736 407.421 35.4576 411.576 29.8419 412.487 20.6987 412.115 18.7486 411.756 16.7845 408.332 13.1604 403.349 12.0817 398.38 10.9889 391.85 13.7828 385.169 18.7486 380.434 22.2759 369.281 31.5987 353.364 41.7098 346.172 35.4576 337.683 30.6027 330.284 27.8363 318.702 23.4792 310.212 21.3074 301.889 27.8363 293.565 34.3511 290.5 38.1551 289.589 41.7792 288.678 45.4166 289.589 55.1961 289.589 55.1961L289.479 60.9642C286.29 54.5321 279.553 39.6489 274.902 37.6016 269.96 35.4164 265.791 36.8687 264.341 41.945 262.906 47.0213 263.264 45.0297 263.983 52.2779 264.7 59.5116 260.366 69.8582 260.366 69.8582L271.036 63.3293C271.036 63.3293 275.923 70.0381 278.27 75.4739 280.63 80.91 288.402 106.887 292.198 115.006 295.994 123.126 295.456 126.943 291.66 127.303 287.864 127.662 285.862 126.21 283.336 122.226 280.81 118.243 268.69 88.1581 268.69 88.1581 268.69 88.1581 256.031 61.8771 253.671 55.5421 251.324 49.1931 242.462 26.8959 241.288 24.0048 240.115 21.1 237.948 18.7486 233.958 18.7486 229.983 18.7486 217.586 31.5294 216.69 35.1397 215.792 38.7638 217.683 45.4722 220.403 46.9245 223.108 48.3771 226.642 50.2718 226.821 51.6413 227.001 52.9968 230.079 66.6907 228.271 70.7573 226.463 74.8377 230.797 74.0216 232.164 78.5586 233.517 83.0818 236.775 91.4224 232.247 98.6706 227.719 105.918 225.552 110.137 228.63 115.006 231.708 119.875 243.469 134.744 243.469 134.744L254.319 151.965C254.319 151.965 257.936 161.026 253.05 164.649 248.163 168.273 241.288 172.644 240.929 178.786 240.57 184.927 243.455 184.927 243.455 184.927 243.455 184.927 248.881 183.931 253.491 183.212 258.102 182.479 263.707 183.752 267.144 180.861 270.581 177.956 280.534 169.339 280.078 165.811 279.622 162.27 279.898 154.842 276.461 153.307 273.024 151.758 268.317 154.026 265.432 153.307 262.533 152.574 258.64 152.754 258.64 152.754L243.455 128.022C243.455 128.022 240.64 125.131 243.455 118.782 246.258 112.447 250.772 110.442 250.772 104.826 250.772 99.2099 247.155 95.5858 250.054 90.7032 252.953 85.7927 257.412 88.5176 261.153 95.4059 264.88 102.294 285.862 131.826 285.862 131.826 285.862 131.826 289.12 140.513 296.353 138.535 303.172 136.681 304.691 135.74 305.754 129.723 311.344 133.209 322.056 139.835 331.664 145.492L332.81 188.759C332.81 189.852 326.308 203.615 324.859 207.418 323.409 211.236 323.23 219.383 330.822 219.023 338.415 218.664 350.535 212.758 356.512 208.331 362.475 203.905 362.834 198.026 361.026 191.47 359.327 185.342 355.255 165.687 353.033 156.101 360.349 157.706 369.377 157.595 371.875 158.854 374.775 160.306 382.008 167.914 388.882 163.391 395.757 158.854 403.529 151.219 403.349 146.059 403.17 140.914 391.422 139.641 386.536 136.916 381.649 134.205 375.865 122.973 366.63 120.608 361.895 119.405 356.001 118.34 351.39 117.579L350.079 111.825C350.079 111.825 351.446 110.11 358.32 107.938 365.195 105.766 372.607 104.853 374.954 99.0578 377.301 93.2482 380.02 88.7253 377.48 85.2808 375.382 82.4178 372.773 70.6605 367.5 59.9129ZM341.134 49.041C338.083 50.7563 334.922 52.4574 331.637 54.1174 304.152 68.0877 299.514 67.0365 295.47 66.082 292.902 65.4874 291.232 61.8908 290.335 59.3179 291.784 56.5793 294.738 51.1573 296.463 49.041 298.81 46.1362 302.965 36.8965 311.828 36.8965 320.69 36.8965 334.08 41.2398 338.235 45.7768 339.022 46.6203 340.029 47.7409 341.134 49.041ZM289.962 60.0376 290.252 62.5132 290.031 62.057 289.479 60.9642ZM350.286 140.499C349.347 133.5 348.726 127.137 348.726 127.137L351.584 124.08C353.834 126.293 356.125 128.575 357.768 130.221 362.296 134.744 368.632 142.906 365.912 145.257 363.207 147.622 358.14 147.429 352.619 142.366 352.039 141.826 351.238 141.19 350.286 140.499" fill-rule="evenodd" transform="matrix(1 0 0 -1 1578 1165)"/><path d="M229.527 460.052C356.271 460.052 459.027 357.072 459.027 230.052 459.027 103.03 356.271 0.0516591 229.527 0.0516591 102.783 0.0516591 0.0270599 103.03 0.0270599 230.052 0.0270599 357.072 102.783 460.052 229.527 460.052ZM408.125 279.377 412.735 275.117C412.735 275.117 415.51 272.074 418.38 270.69 421.251 269.307 422.328 268.325 422.383 268.021 422.424 267.717 423.197 266.638 422.383 264.826 421.555 263.027 419.043 261.962 417.966 262.004 416.89 262.059 415.716 263.083 414.267 264.217 412.832 265.351 410.279 266.734 410.279 266.734 410.279 266.734 408.636 266.887 406.994 266.472 405.351 266.07 400.383 264.217 398.837 263.913 397.305 263.594 394.323 263.345 393.302 264.106 392.281 264.881 391.811 266.32 391.811 267.246 391.811 268.173 392.488 270.027 392.488 270.027L393.206 271.866 390.735 272.502 387.919 272.378C387.919 272.378 385.104 272.641 383.613 272.378 382.123 272.129 380.687 270.69 380.687 270.69 380.687 270.69 379.403 269.556 375.912 269.197 372.433 268.837 368.638 269.404 368.638 269.404 369.204 269.072 367.617 273.305 368.638 274.204 369.659 275.103 372.572 275.587 375.442 275.808 378.313 276.002 385.683 276.625 387.698 276.874 389.699 277.136 400.686 277.634 401.721 277.523 402.743 277.427 402.425 276.389 402.425 275.988 402.425 275.573 403.129 273.429 402.425 272.793 401.735 272.156 398.229 270.69 397.953 270.69 397.857 270.69 397.111 270.87 396.145 271.119L396.021 270.082C396.021 270.082 397.194 268.27 398.533 268.588 399.872 268.892 401.611 270.69 402.95 270.69 404.275 270.69 405.462 271.506 405.972 271.922 406.483 272.337 407.283 274.854 407.283 275.214 407.283 275.573 408.125 279.377 408.125 279.377ZM375.884 215.638C375.884 215.638 377.568 216.206 380.908 217.229 384.262 218.267 387.16 219.636 387.16 219.636L380.025 221.185C380.025 221.185 377.664 223.91 377.416 224.74 377.167 225.556 375.884 233.372 375.884 236.954 375.884 240.509 385.973 239.79 385.973 239.79L394.517 239.845C395.29 239.015 396.007 238.171 396.366 237.59 397.208 236.193 398.795 237.48 400.603 237.59 402.411 237.687 402.315 238.973 402.37 240.356 402.411 241.754 400.603 244.631 400.603 244.631L396.67 248.421C396.67 248.421 392.005 256.706 391.08 258.505 390.155 260.303 389.23 263.747 389.23 263.747 384.828 263.027 384.207 259.127 384.262 257.923 384.303 257.038 384.828 255.046 385.228 253.58 383.903 253.981 381.805 254.77 379.086 256.347 374.255 259.127 370.86 262.156 370.612 262.585 370.349 263.014 369.19 263.747 369.19 263.747 369.19 263.747 368.872 264.051 368.279 263.027 367.699 262.004 367.382 259.846 368.279 258.56 369.19 257.273 372.971 253.926 374.876 252.847 376.767 251.768 384.234 247.646 388.775 246.042L389.41 245.82 389.534 245.627C387.685 245.557 383.475 245.391 380.908 245.101 377.568 244.728 374.876 244.423 373.054 242.93 371.233 241.435 369.742 237.991 369.797 232.943 369.853 227.894 369.797 221.988 375.884 215.638ZM402.411 242.473C402.411 242.473 405.503 243.081 406.262 243.801 407.021 244.52 407.021 246.678 407.021 248.075 407.021 249.458 405.434 253.359 405.434 253.359 405.434 253.359 405.641 254.548 403.75 254.341 401.846 254.133 400.824 254.493 400.672 253.677 400.521 252.847 400.672 250.897 400.672 249.251 400.672 247.605 402.411 242.473 402.411 242.473ZM418.739 251.436C419.788 251.284 420.865 251.229 421.444 251.575 422.755 252.335 424.563 254.451 424.826 254.853 425.074 255.268 426.468 254.853 426.676 253.082 426.869 251.312 425.902 247.342 424.978 246.678 424.053 246.042 421.996 246.042 421.996 246.042 421.996 246.042 421.237 246.055 420.106 246.816 420.23 245.336 420.313 243.247 420.313 243.247 420.313 243.247 420.865 242.058 421.127 241.518 421.389 240.965 421.803 240.827 422.755 240.218 423.708 239.596 422.755 237.59 421.803 235.322 420.837 233.067 416.669 232.708 416.103 233.067 415.537 233.426 413.743 235.792 413.743 237.175 413.743 238.558 409.851 243.607 409.492 244.368 409.133 245.143 407.021 250.081 407.021 250.081 407.021 250.081 413.743 244.894 415.082 244.271 416.434 243.649 416.158 244.783 415.951 246.042 415.744 247.287 413.743 249.721 412.004 251.215 410.265 252.709 409.948 255.115 409.948 255.115L410.168 258.615C409.119 258.242 408.001 257.979 407.435 257.937 406.566 257.896 405.227 257.937 403.488 257.937 401.749 257.937 401.901 257.923 400.41 257.923 398.919 257.923 398.616 259.099 398.878 259.791 399.126 260.469 399.541 263.027 400.562 263.027 401.597 263.027 404.233 263.027 406.262 263.027 408.305 263.027 413.743 263.027 413.743 263.027 413.743 263.027 412.97 259.943 411.742 259.279 411.466 259.127 411.162 258.988 410.817 258.85L411.7 258.449 415.082 255.115C415.082 255.115 417.331 253.622 418.049 252.75 418.284 252.473 418.518 251.989 418.739 251.436ZM371.578 339.519C371.578 339.519 372.544 340.639 370.446 340.847 368.348 341.054 367.672 341.442 365.574 341.303 363.476 341.179 361.516 340.958 359.832 340.432 358.134 339.893 356.727 339.92 356.092 339.519 355.443 339.104 353.773 337.707 353.318 337.347 352.848 337.001 351.951 335.687 353.318 334.733 354.684 333.778 355.443 333.654 356.934 333.778 358.424 333.917 362.289 334.816 363.573 335.397 364.856 335.992 367.064 336.324 368.238 336.739 369.425 337.154 369.342 337.209 370.142 337.541 370.929 337.873 371.578 339.519 371.578 339.519ZM339.861 326.918C339.861 326.918 340.275 323.501 340.84 321.966 341.406 320.445 341.917 319.351 342.787 317.568 343.656 315.769 345.243 314.428 345.865 313.708 346.486 312.989 347.258 312.837 348.528 312.574 349.812 312.325 353.635 312.726 355.54 313.501 356.671 313.957 357.762 314.428 358.465 314.746 358.052 315.285 357.61 315.838 357.044 316.336 355.498 317.664 355.705 318.646 355.705 319.877 355.705 321.109 355.346 323.543 355.705 325.023 356.064 326.503 358.272 327.125 358.272 327.125 358.272 327.125 359.294 325.756 359.446 324.649 359.598 323.557 360.522 321.966 360.936 321.966 361.35 321.966 362.841 319.366 363.407 318.951 363.959 318.549 364.318 317.18 364.318 317.18L365.753 317.18 367.161 318.743 367.161 317.18 368.941 317.18C368.941 317.18 373.662 317.152 375.856 317.194 378.064 317.263 378.327 316.904 378.423 317.927 378.534 318.951 377.25 319.974 377.25 319.974 377.25 319.974 368.527 321.966 367.713 322.865 366.885 323.75 367.092 325.756 367.713 326.71 368.32 327.679 370.625 329.906 370.625 329.906 373.855 324.815 374.89 325.756 378.423 322.491 381.971 319.241 381.971 319.573 382.937 316.488 383.903 313.404 381.971 311.191 381.142 310.831 380.314 310.472 376.326 311.343 375.042 312.118 373.759 312.878 369.756 314.939 369.19 314.732 368.638 314.524 367.713 313.348 367.81 312.837 367.907 312.325 368.113 311.343 368.431 310.223 368.735 309.102 369.963 309.13 370.68 307.29 371.398 305.437 371.509 303.846 371.15 302.601 370.777 301.37 369.135 301.688 369.135 301.688L368.113 302.601C368.113 302.601 366.222 305.077 365.808 305.893 365.615 306.281 364.677 307.387 363.614 308.59 363.117 308.535 362.33 308.369 361.143 308.01 358.631 307.235 355.761 305.644 353.966 305.437 352.172 305.229 349.039 304.87 347.41 304.773 345.768 304.662 341.614 304.87 339.861 309.448 338.121 314.012 339.405 316.696 338.991 317.872 338.577 319.061 337.307 323.529 339.861 326.918ZM395.993 320.735 404.482 318.439C404.482 318.439 408.677 316.793 410.016 317.623 411.341 318.439 411.548 317.305 411.189 316.544 410.831 315.769 408.374 312.007 407.656 310.928 406.938 309.863 404.523 309.088 403.612 310.015 402.991 310.624 400.686 312.118 399.223 313.044 399.375 311.91 399.444 310.928 399.444 310.472 399.444 309.24 398.726 306.211 397.443 304.98 396.159 303.749 393.495 302.504 392.115 302.601 390.735 302.712 388.319 305.547 387.602 307.346 386.884 309.143 386.774 310.886 386.774 310.886 386.774 310.886 389.134 307.899 391.811 307.65 394.475 307.387 395.442 307.442 396.118 308.632 396.78 309.807 397.25 311.965 395.966 314.331 394.682 316.696 393.247 320.915 386.732 326.489 380.218 332.064 377.982 332.963 376.063 334.525 374.145 336.089 374.145 336.448 372.544 337.873 372.544 337.873 375.235 338.163 376.698 337.541 377.816 337.071 382.481 333.197 385.241 330.915 385.007 331.593 385.09 332.492 385.09 333.211 385.09 334.111 386.001 335.701 386.346 336.199 386.691 336.683 387.864 337.32 388.83 337.942 389.81 338.551 390.569 338.717 391.19 339.076 391.811 339.436 393.426 339.561 393.426 339.561L393.426 337.942C393.426 337.942 392.86 336.379 392.805 336.089 392.75 335.812 393.136 333.986 393.123 333.502 393.081 333.004 391.48 331.04 389.658 330.099 388.541 329.546 387.409 329.546 386.594 329.795L387.105 329.38C388.113 328.606 393.164 323.806 395.993 320.735ZM400.383 330.155C400.383 330.155 398.271 330.417 396.711 329.629 395.151 328.84 394.572 328.384 394.199 327.692 393.813 327.001 394.199 325.479 394.199 324.76 394.199 324.041 395.483 323.238 396.918 323.584 398.354 323.917 399.665 324.608 400.023 325.23 400.383 325.839 400.741 327.07 400.783 328.094 400.838 329.131 400.383 330.155 400.383 330.155ZM140.808 310.223 313.527 310.223C323.243 310.223 331.179 302.269 331.179 292.545L331.179 167.143C331.179 157.42 323.243 149.466 313.527 149.466L140.808 149.466C131.119 149.466 123.169 157.42 123.169 167.143L123.169 292.545C123.169 302.269 131.119 310.223 140.808 310.223ZM140.09 287.925 288.186 287.925 218.237 252.156C218.237 252.156 215.891 250.772 212.854 252.156ZM142.616 164.736C142.616 164.736 200.874 199.469 289.29 194.849L290.201 194.794C289.814 188.556 289.759 182.289 290.159 176.051L289.069 176.355C289.069 176.355 259.326 187.961 142.616 164.736ZM140.09 176.355C140.09 176.355 187.017 251.077 317.06 287.925L317.074 287.925C313.83 281.314 309.496 271.783 305.245 260.372L302.705 258.988C302.705 258.988 229.638 260.51 140.09 176.355ZM140.09 171.417C140.09 171.417 209.68 242.57 300.345 251.533L302.167 251.713C299.89 244.977 297.709 237.729 295.846 230.19L293.983 229.844C293.983 229.844 210.011 228.696 140.09 171.417ZM293.9 221.6 292.754 221.877C292.754 221.877 222.088 223.315 140.09 167.821 214.138 197.422 232.149 203.273 290.394 201.53L290.822 202.042C291.512 208.667 292.575 215.224 293.9 221.6ZM144.093 304.247 310.255 304.247C318.398 304.247 325.051 297.58 325.051 289.419L325.051 170.269C325.051 162.108 318.398 155.441 310.255 155.441L144.093 155.441C135.949 155.441 129.297 162.108 129.297 170.269L129.297 289.419C129.297 297.58 135.949 304.247 144.093 304.247ZM429.574 192.899C412.128 99.3379 329.15 28.462 229.417 28.462 130.098 28.462 47.3956 98.7559 29.4805 191.764L73.6885 203.217C86.3723 129.562 151.256 73.4729 229.417 73.4729 307.025 73.4729 371.564 128.773 384.883 201.668ZM215.325 54.9642C214.373 46.0579 216.747 36.7209 227.181 35.6292 236.925 34.6029 241.949 42.1282 241.632 50.9279 241.425 56.7484 239.975 60.1373 237.063 62.8066 229.086 70.1252 216.429 65.3242 215.325 54.9642ZM220.956 53.6933C220.418 47.5939 221.77 41.2015 227.705 40.4545 233.24 39.7482 236.097 44.8939 235.918 50.9279 235.807 54.9093 234.979 57.2339 233.323 59.0731 228.782 64.0807 221.591 60.7883 220.956 53.6933ZM191.71 69.3366 187.017 41.8941 193.007 40.4957 194.608 50.6212 205.691 50.6212C205.691 50.6212 209.694 51.9643 211.046 57.4543 212.399 62.9616 209.901 66.5571 205.332 68.2034 200.75 69.8496 191.71 69.3366 191.71 69.3366ZM196.444 63.0718 195.864 55.8771 201.578 55.8771C202.793 55.8771 203.469 55.7943 204.118 56.9446 205.567 59.49 204.822 63.0718 202.834 63.0718ZM148.385 78.6045C138.613 68.5339 139.345 55.6426 153.326 51.2173 158.847 49.4605 164.879 51.6717 168.633 57.2202 182.048 77.1097 157.356 87.8313 148.385 78.6045ZM153.864 71.8126C150.455 67.4975 148.123 63.4023 151.849 59.9444 155.576 56.4865 159.703 59.2385 161.842 62.9479 165.279 68.8785 164.202 71.6475 161.11 73.4451 158.819 74.7713 155.603 74.0275 153.864 71.8126ZM127.875 100.347 110.857 77.9398 127.875 64.8419C127.875 64.8419 133.948 63.554 137.385 66.8465 140.822 70.1389 137.385 76.614 137.385 76.614 137.385 76.614 142.478 76.7654 144.051 79.3382 145.597 81.897 146.439 86.8909 141.65 90.1801ZM130.511 76.5002C130.511 76.5002 130.65 77.1924 130.415 77.7607 129.753 79.3382 125.667 82.5584 123.845 81.1358 122.244 79.8754 121.816 77.6642 124.342 75.8529 126.868 74.0549 128.897 73.0149 130.511 76.5002ZM136.529 85.1483C136.529 85.1483 136.626 85.8509 136.364 86.3917 136.046 87.0152 135.315 87.5108 134.762 87.9967 133.727 88.8955 131.119 90.7209 129.587 89.35 128.055 87.9967 127.778 85.7544 130.415 84.1082 133.065 82.462 135.149 81.5632 136.529 85.1483ZM117.62 98.4391 120.119 100.543C120.119 100.543 121.099 104.387 120.202 106.447 118.697 109.936 115.716 114.967 110.595 116.836 104.301 119.132 97.6625 116.96 93.0388 113.211 88.7049 109.698 86.1104 104.859 87.9736 99.214 89.3673 94.94 96.8759 87.0289 102.424 85.9473 104.205 85.6031 106.413 85.5615 108.18 86.6948 111.975 89.1571 114.86 94.3302 114.86 94.3302L105.295 103.681 100.975 100.03 105.088 95.5632C105.088 95.5632 104.978 93.0456 103.059 92.9491 101.141 92.839 98.1593 95.1878 96.8622 96.5862 95.5648 97.9705 93.9083 102.396 98.1593 106.102 102.424 109.794 105.875 111.441 110.968 107.277 112.196 106.267 112.527 102.396 112.527 102.396ZM67.3669 123.918 62.2327 130.599 86.8277 146.7 91.2034 139.811 84.8541 123.918 97.8559 130.557 102.424 123.918 79.6507 108.344 74.2405 114.265 79.2368 130.35ZM54.324 146.326 59.6245 137.128 84.8541 149.673 80.3272 158.72ZM41.5297 180.049 44.3313 172.137 57.2916 174.862 57.2916 173.368 56.0909 171.21 48.6515 161.859 48.1822 159.439C48.1822 159.439 50.2665 152.551 50.8322 152.398 51.412 152.246 77.7189 160.366 77.7189 160.366L76.2696 168.277 59.1136 164.017 72.3636 178.61 70.652 188.431ZM402.522 189.136 399.458 182.511C393.109 184.641 390.114 175.65 394.669 173.202 395.469 172.773 397.305 171.777 399.099 170.809 401.349 169.578 403.557 168.388 403.557 168.388 413.094 165.082 415.206 174.834 409.699 178.499 412.322 183.452 412.597 183.645 412.597 183.645 412.597 183.645 417.552 180.657 417.662 175.055 417.759 169.453 414.171 165.76 411.935 163.824 409.699 161.901 402.619 160.089 394.047 165.345 385.463 170.588 387.119 178.14 388.016 180.962 388.885 183.797 392.515 191.861 402.522 189.136ZM383.765 163.824 381.432 158.484 407.201 146.658 409.699 152.564ZM394.42 124.333 391.605 119.036 368.652 132.521 372.364 139.534 393.854 139.534 376.533 148.276 379.445 153.92 403.322 141.499 400.052 134.79 377.209 134.099ZM354.008 117.486 350.668 113.476 371.481 95.2294 375.125 99.865 366.264 107.249 372.917 115.771 382.564 108.189 385.835 112.395 364.607 129.313 361.13 125.038 369.548 118.413 362.758 110.183ZM350.543 105.258 347.576 100.695C347.576 100.695 343.642 102.341 342.317 101.511 340.992 100.695 338.397 99.7822 338.08 97.3748 337.763 94.9675 339.226 91.3582 342.193 88.8955 345.16 86.4191 347.038 84.2184 351.302 83.7498 357.224 83.113 358.134 91.2065 354.891 93.793 358.521 96.5035 359.432 97.4438 359.432 97.4438 362.661 91.5648 364.138 84.7729 357.43 80.4162 356.078 79.5311 354.698 78.7284 353.014 78.4391 343.56 76.8344 334.533 85.1035 332.518 93.6106 330.02 104.235 341.807 110.721 350.543 105.258ZM328.612 90.955 325.52 95.2294 309.965 84.58 325.631 59.3487 343.518 71.1205 340.316 75.4913 328.64 67.0669 324.623 73.2526 334.519 80.0029 331.869 84.3734 321.78 77.6093 317.722 83.8741ZM287.137 74.6196 289.911 68.5202 296.15 71.3824 305.093 50.3459 310.821 52.8498 301.201 73.3349 308.668 77.041 305.921 82.5758ZM265.122 68.9645C264.446 68.8095 258.994 66.9979 258.994 66.9979L271.679 51.7993 275.005 40.5368 280.788 41.9905 277.558 53.3317 281.257 74.0961 275.778 72.0883 273.735 57.1927ZM245.358 66.3368 251.514 66.9979 253.819 43.2372 265.261 44.1775 265.978 38.1193 248.615 36.6108ZM37.8034 228.309C37.8034 228.309 34.7254 227.949 33.704 228.364 32.6689 228.779 32.0613 229.18 31.799 230.052 31.5371 230.923 31.1918 231.808 31.1918 231.808 31.1918 231.808 29.1771 232.085 29.2875 231.034 29.3975 229.983 29.4394 226.262 31.4956 225.584 33.5384 224.92 38.1068 223.163 40.8258 222.292 43.5448 221.421 47.7957 219.166 50.9289 219.733 54.0617 220.3 55.3454 220.286 56.0079 221.531 56.6707 222.762 56.6151 224.146 56.3117 225.225 56.0079 226.303 56.3669 227.797 53.7583 228.212 51.136 228.613 51.4398 228.835 47.6994 228.724 43.959 228.613 42.9102 228.572 42.9102 228.572 42.9102 228.572 42.413 229.816 42.1092 230.826 41.8058 231.836 41.6954 235.239 40.9222 237.3 40.163 239.361 38.4658 242.598 37.4444 244.659 36.4089 246.706 36.4089 246.194 35.8984 247.936 35.3875 249.693 34.6702 254.839 34.4079 257.301 34.1593 259.763 34.8221 261.354 34.8221 261.354 34.8221 261.354 37.8445 258.988 39.5836 256.167 41.3364 253.345 46.7747 246.097 46.7747 246.097L47.7405 245.779C47.7405 245.779 45.6428 253.29 45.4358 253.746 45.2287 254.217 39.8459 268.131 39.3354 269.888 38.8245 271.631 38.1068 273.844 35.9536 273.54 33.8007 273.222 30.6123 269.529 29.9499 266.748 29.2875 263.982 29.0804 259.445 29.798 256.886 30.5156 254.313 31.0262 253.442 30.1566 253.179 29.2875 252.916 27.6863 253.954 25.699 253.594 23.6973 253.234 21.1302 253.954 19.4326 251.021 17.7488 248.103 16.9207 246.194 17.0726 245.059 17.2245 243.925 18.2597 243.621 19.6397 243.621 21.0198 243.621 24.7187 243.469 25.6434 244.285 26.5681 245.115 26.0576 246.235 27.2858 245.779 28.5143 245.322 29.1215 246.194 30.6123 243.206 32.1028 240.218 32.2547 241.615 32.2547 241.615L31.8409 244.437 31.9372 246.595 34.1456 241.145C34.1456 241.145 36.8646 233.731 37.3199 231.891 37.7893 230.052 37.8034 228.309 37.8034 228.309ZM341.766 376.091C341.766 376.091 342.69 379.424 341.917 380.351 341.144 381.278 339.916 382.827 339.516 383.076 339.101 383.339 339.253 383.643 337.501 383.643L336.562 383.643 338.742 386.673 342.221 389.813C342.221 391.154 341.82 392.939 341.31 394.433 340.799 395.926 340.33 397.323 339.819 397.987 339.309 398.651 339.198 399.37 338.177 399.578 337.156 399.785 336.231 399.578 335.706 398.195 335.196 396.797 333.512 392.385 332.946 391.099 332.532 390.158 329.426 385.884 327.77 383.643L324.844 383.643 316.949 383.643C316.949 383.643 318.122 382.052 319.102 379.867 319.999 377.834 320.469 377.156 321.656 376.271 318.067 372.052 310.779 368.179 305.204 367.972 303.865 367.916 298.951 367.972 298.123 367.972 297.309 367.972 295.97 368.276 295.874 367.349 295.763 366.422 297.461 362.577 299.103 361.747 300.746 360.917 305.411 360.972 308.019 361.747 310.642 362.521 312.381 362.729 312.381 362.729L313.112 363.075 309.054 355.108C309.054 355.108 306.128 352.438 305.728 351.263 305.3 350.073 303.824 347.708 305.728 346.38 307.619 345.038 309.11 345.564 311.511 347.403 313.926 349.257 314.23 354.153 315.1 355.149 315.983 356.145 319.047 362.771 319.047 362.771L321.255 363.545 326.031 356.242 326.293 354.873 323.753 355.149C323.753 355.149 325.99 350.764 326.293 350.502 326.597 350.253 327.701 347.445 328.005 346.365 328.308 345.287 329.675 344.152 330.309 344.277 330.958 344.415 331.855 345.827 332.725 346.545 333.595 347.265 333.801 348.164 333.801 349.27 333.801 350.377 334.367 352.397 333.801 353.434 333.236 354.471 332.463 355.979 332.463 355.979 332.463 355.979 327.646 362.259 327.383 362.48 327.108 362.701 325.493 363.49 324.527 364.68 323.547 365.855 323.395 366.16 323.395 366.63 323.395 366.824 323.408 367.39 323.436 367.972L324.278 368.373C325.976 369.202 328.474 371.457 329.578 372.841 330.172 373.587 330.53 374.403 330.751 375.012 331.731 375.012 332.546 375.026 333.042 375.067 335.099 375.219 341.766 376.091 341.766 376.091ZM343.187 382.965 344.208 383.865 345.133 384.971 345.133 385.746 344.774 387.42C344.774 387.42 344.47 388.692 345.133 388.775 345.809 388.858 347.797 389.079 348.142 388.775 348.473 388.471 348.956 387.903 349.136 387.668 349.315 387.433 350.516 386.52 350.654 386.23 350.778 385.953 350.957 385.207 351.109 384.846 351.261 384.487 351.827 383.796 351.91 382.965 351.979 382.136 352.31 381.278 352.103 380.587 351.91 379.895 352.089 378.706 351.371 378.18 350.654 377.668 350.861 377.267 349.577 377.239 348.293 377.211 348.004 377.211 347.286 377.862 346.569 378.498 346.085 378.774 346.113 379.397 346.141 380.019 344.595 381.375 344.553 381.582 344.498 381.79 343.187 382.965 343.187 382.965ZM250.161 414.821C249.789 414.585 247.539 413.092 246.407 412.898 245.179 412.691 242.929 411.93 242.363 411.418 241.797 410.906 240.21 410.228 241.286 408.998 242.363 407.766 245.344 406.328 246.255 405.194 246.876 404.447 247.829 404.461 248.643 404.557 248.008 402.51 247.221 400.048 246.586 398.001L246.559 397.96 236.925 390.794C236.925 390.794 234.358 390.698 234.358 388.955 234.358 387.198 235.283 384.321 236.622 383.09 237.96 381.859 240.155 377.46 240.417 376.478 240.665 375.51 240.624 374.735 241.024 374.32 241.438 373.919 244.268 374.071 245.441 375.095 246.628 376.119 247.29 377.516 247.801 379.881 248.312 382.246 248.008 384.805 248.67 386.244 249.347 387.682 250.465 393.284 250.465 393.284L251.5 397.835 251.486 397.821 256.414 402.925 257.38 404.295 262.211 404.779C262.211 404.779 264.985 404.779 267.938 405.194 267.331 402.178 266.806 399.204 266.572 396.037 266.475 394.598 268.214 394.501 268.214 394.501 268.214 394.501 269.636 395.11 270.133 395.995 270.657 396.853 270.809 397.116 271.679 397.655 272.548 398.195 272.907 397.918 273.68 397.766 274.453 397.6 274.453 396.756 274.619 395.29 274.812 393.824 273.652 391.542 272.314 388.554 270.988 385.58 269.815 385.414 268.987 385.22 268.173 385.013 266.834 385.524 266.834 385.524 266.834 385.524 262.983 389.591 261.396 390.31 259.809 391.03 255.185 393.45 252.011 388.305 248.836 383.173 253.143 378.747 254.108 378.083 255.089 377.405 260.43 375.925 262.983 375.662 265.537 375.399 266.572 376.119 267.248 376.174 267.924 376.229 268.987 375.552 269.443 374.791 269.912 374.016 270.836 369.949 271.195 368.981 271.554 367.999 275.088 367.39 276.275 367.543 277.448 367.695 278.676 368.677 278.676 369.908 278.676 371.139 277.296 374.68 277.296 374.68L272.424 381.361C272.424 381.361 274.011 382.551 274.273 382.896 274.522 383.27 278.428 388.485 279.366 391.154 280.319 393.824 278.759 398.402 278.428 399.481 278.083 400.56 276.219 401.376 275.75 401.404 275.294 401.431 271.885 401.404 271.885 401.404L272.935 406.397C275.405 407.296 276.15 407.96 278.414 407.96 281.078 407.96 282.168 409.191 282.168 409.191 282.886 410.284 282.417 412.387 282.002 412.843 281.602 413.299 281.45 413.88 279.09 413.921 277.213 413.963 276.219 414.752 274.991 414.433L275.695 416.439C275.861 416.854 276.261 423.079 276.261 424.254 276.261 425.444 276.882 428.307 276.261 430.423 275.654 432.526 273.142 431.71 271.803 431.71 270.478 431.71 270.574 428.376 270.574 424.614 270.574 419.496 269.912 415.139 269.125 411.072 267.304 410.049 265.702 409.191 265.702 409.191L256.772 404.225 253.239 402.925 252.425 402.33 252.508 402.248 253.626 407.227C254.33 407.739 254.978 408.181 255.447 408.389 256.869 408.998 259.077 409.689 260.32 409.689 261.548 409.689 262.983 412.539 262.983 413.313 262.983 414.088 261.175 415.471 259.436 415.886 258.153 416.19 256.855 416.384 256.275 416.467 256.565 418.002 256.855 419.468 256.979 419.994 257.283 421.281 258.925 423.59 258.884 424.517 258.829 425.444 257.131 428.736 255.447 430.022 253.75 431.309 252.659 432.388 251.956 431.198 251.238 430.022 250.934 427.45 250.824 425.707ZM263.756 380.67C263.756 380.67 262.141 384.778 261.327 385.372 260.499 385.967 257.531 387.738 256.993 387.738 256.455 387.738 254.702 387.322 254.15 386.244 253.584 385.165 253.46 383.699 254.15 382.468 254.84 381.236 256.455 380.974 261.686 380.67ZM244.627 390.739C243.964 388.111 243.136 384.999 243.136 384.999 243.136 384.999 242.722 384.058 242.184 384.141 241.645 384.224 241.052 384.376 241.024 384.736 241.01 385.096 240.182 386.133 241.024 387.005L244.64 390.725ZM190.619 383.712 189.405 386.7 191.433 388.803 191.82 389.342 193.338 383.353 193.449 383.284 189.267 380.794ZM198.624 386.382C198.624 386.382 197.561 390.67 196.32 395.829 198.1 398.361 199.825 400.864 200.515 401.916 202.158 404.378 205.291 406.176 206.257 406.895 207.237 407.614 207.748 408.901 206.878 410.588 206.009 412.289 202.31 414.71 200.874 414.959 199.439 415.222 198.417 413.991 198.155 412.746 197.907 411.515 196.513 407.67 196.513 407.67L194.553 403.451C193.67 407.338 192.938 410.796 192.717 412.4 192.11 417.117 193.338 419.939 193.338 421.585 193.338 423.245 192.207 425.181 190.619 425.956 189.032 426.73 183.497 428.487 182.103 428.376 180.723 428.279 179.909 425.14 181.192 424.158 182.462 423.189 184.616 417.795 184.616 417.795L190.454 394.723 188.162 389.798C187.445 391.583 186.851 393.118 186.823 393.27 186.769 393.686 184.574 399.426 184.422 400.2 184.27 400.989 184.519 405.401 182.876 406.273 181.234 407.158 179.343 407.67 178.156 407.67 176.983 407.67 173.643 407.559 172.318 406.95 170.979 406.328 170.013 406.535 170.372 405.816 170.731 405.097 172.677 400.864 173.643 400.2 174.112 399.882 175.727 397.06 177.355 393.948 175.382 392.966 172.318 391.431 171.904 391.126 171.282 390.656 168.771 389.411 168.978 387.876 169.185 386.341 170.924 382.426 171.752 381.555 172.566 380.683 176.831 379.604 177.493 380.587 178.156 381.555 178.266 384.584 179.025 385.566 179.384 386.022 179.881 387.074 180.295 388.07 180.806 387.005 181.192 386.133 181.386 385.621 182.365 383.048 182.876 380.324 182.876 379.549 182.876 378.788 182.669 377.198 182.669 377.198L183.87 377.557 173.905 371.582 172.373 371.222C172.373 371.222 169.833 371.277 168.978 371.222 168.108 371.167 166.314 369.092 167.128 368.262 167.956 367.419 171.131 365.675 172.373 365.468 173.601 365.26 174.885 365.413 175.437 365.938 176.017 366.45 186.617 374.307 193.297 377.862 199.963 381.402 207.292 384.487 210.411 384.902 213.545 385.303 213.6 387.516 213.241 388.18 212.882 388.858 211.157 390.546 209.238 390.546 207.32 390.546 206.574 390.338 204.67 389.466 202.779 388.595 198.624 386.382 198.624 386.382ZM90.4992 368.096C91.2583 367.792 92.5005 367.833 93.3148 368.304 94.1429 368.76 94.3915 369.894 95.1091 370.821 95.8271 371.747 97.3175 372.301 97.3175 372.301 97.3175 372.301 98.4494 370.406 98.3941 369.438 98.3386 368.456 99.5256 362.798 100.547 360.53 101.568 358.275 103.873 353.033 107.807 348.205 111.727 343.378 112.651 342.7 112.651 342.7 112.651 342.7 113.107 341.677 113.576 340.598 114.032 339.519 115.067 337.001 116.144 336.531 117.22 336.075 119.166 336.282 119.58 337.61 119.98 338.952 119.58 340.279 119.58 341.622 119.58 342.963 120.449 351.802 119.76 353.641 119.056 355.495 118.297 357.86 118.242 358.69 118.186 359.506 118.863 360.792 118.863 360.792L118.338 362.853C119.898 360.82 121.775 358.206 123.169 356.311 125.377 353.324 126.812 351.497 126.812 351.497L127.309 350.294 125.46 349.907 124.273 349.907C124.273 349.907 127.309 349.035 127.309 348.565 127.309 348.109 127.875 346.726 128.814 346.006 129.766 345.287 131.229 344.305 131.974 344.388 132.719 344.457 133.686 345.467 133.741 346.338 133.796 347.209 133.41 349.119 132.719 349.879 132.03 350.654 130.87 351.373 130 352.424 125.267 358.151 122.52 362.439 119.097 366.422 115.343 370.793 110.913 374.86 105.033 380.683 105.033 380.683 103.142 381.14 102.424 380.42 101.707 379.701 101.113 378.871 102.424 377.751 103.556 376.769 111.989 369.438 115.122 366.547L114.653 361.609C114.653 361.609 113.121 360.682 111.575 361.816 110.043 362.936 111.051 363.462 109.422 365.62 107.807 367.778 106.33 369.009 105.268 369.631 104.191 370.254 101.527 370.959 101.734 369.728 101.942 368.497 105.268 367.473 105.268 366.132 105.268 364.804 109.119 361.609 109.933 360.585 110.761 359.548 112.914 357.611 113.01 355.951 113.121 354.319 113.935 350.516 113.728 349.782 113.521 349.077 112.955 349.27 112.196 350.405 111.423 351.539 110.913 352.106 110.913 352.106 110.913 352.106 109.574 350.82 110.499 349.63 111.423 348.455 111.838 347.168 111.838 347.168 111.838 347.168 109.601 348.966 108.704 350.516 107.807 352.051 103.363 359.451 102.811 361.553 102.245 363.67 101.375 365.98 101.113 367.058 100.851 368.137 100.244 369.701 100.161 370.613 100.092 371.512 99.9124 372.508 99.7331 373.38 99.5538 374.252 100.037 380.158 100.657 382.067 101.279 383.975 101.942 386.078 102.148 387.157 102.355 388.235 102.755 389.065 102.038 389.729 101.32 390.393 98.9047 390.711 98.3527 389.729 97.7869 388.761 97.2623 385.51 96.089 382.841 94.9161 380.171 93.1218 375.593 92.4453 374.154 91.7829 372.716 90.0853 369.493 90.0301 369.175 89.9608 368.857 90.9134 367.819 90.4992 368.096ZM138.061 384.39C138.061 384.39 140.159 386.728 142.464 387.309 144.769 387.903 147.791 386.949 148.827 385.317 149.848 383.657 150.207 381.015 149.958 380.075 149.696 379.134 146.011 377.862 145.031 377.958 144.051 378.069 142.367 378.927 140.67 380.821 138.972 382.717 138.061 382.717 138.061 382.717ZM125.998 370.046C125.998 370.046 127.958 368.511 129.338 367.584 130.718 366.658 133.175 364.057 133.741 363.338 134.307 362.604 133.7 360.087 132.568 359.105 131.436 358.123 128.055 359.52 127.544 360.239 127.019 360.959 125.239 362.923 125.239 364.403 125.239 365.883 123.583 366.561 124.411 367.626 125.239 368.719 125.998 370.046 125.998 370.046ZM116.875 385.635C117.013 387.613 117.261 390.379 117.703 391.334 118.407 392.869 120.519 398.208 121.844 399.19 123.183 400.173 126.205 400.532 126.978 399.855 127.737 399.19 128.62 395.802 128.979 394.363 129.338 392.925 129.697 390.767 132.002 388.858 134.307 386.963 133.796 385.262 133.23 384.39 132.665 383.519 129.849 380.282 129.753 379.978 129.711 379.867 129.449 379.328 129.131 378.65 129.821 378.138 129.642 377.779 129.849 377.294 130.098 376.686 129.904 375.911 130.47 374.569 131.036 373.242 130.567 372.218 129.904 372.218 129.228 372.218 126.923 371.637 125.488 372.218 124.052 372.771 116.751 377.917 115.343 378.94 113.908 379.978 110.926 383.242 110.719 384.086 110.512 384.93 111.699 385.317 113.742 386.036 115.398 386.617 115.881 386.133 116.875 385.635ZM124.259 380.033C124.232 381.402 124.232 383.09 124.301 383.823 124.466 385.165 124.88 387.378 123.279 387.268 121.692 387.171 121.388 386.963 120.712 386.299 120.395 385.981 119.511 385.358 118.655 384.778 119.18 384.21 119.166 383.394 120.022 382.288 121.223 380.738 122.161 380.282 122.823 380.185 122.823 380.185 123.431 380.13 124.259 380.033ZM79.6232 303.957C80.6032 306.405 83.005 311.716 87.173 316.668L86.9384 317.014C86.9384 317.014 85.3098 318.605 84.4125 319.531 83.5155 320.458 80.9207 321.537 80.0786 321.495 79.2368 321.441 78.7259 321.053 78.0776 320.361 77.4426 319.67 76.9595 317.941 76.5868 317.097 76.2281 316.253 74.9033 314.704 74.9033 314.704L74.3646 316.682 71.9768 317.623 71.7975 316.682 71.5215 317.802C70.0448 318.384 68.1953 319.144 66.47 319.85L66.0561 316.226C66.4837 316.378 66.9531 316.502 67.4362 316.613 69.2856 317.014 68.8299 315.576 69.6446 314.455 70.4589 313.321 71.287 311.066 72.6811 309.904 73.7989 308.978 77.0562 305.934 79.6232 303.957ZM90.7477 320.389C90.9686 320.583 91.1897 320.777 91.4239 320.97 100.147 328.37 103.322 328.121 105.889 327.61 108.442 327.084 107.932 323.806 107.214 323.073 106.496 322.367 99.7331 318.909 98.0904 318.093 97.4002 317.747 95.7441 316.641 93.8809 315.285 95.0817 312.38 96.1027 308.729 95.9234 307.152 95.6752 304.786 92.542 300.001 90.8441 299.226 89.1606 298.465 84.3851 300.72 84.3851 300.72 84.3851 300.72 85.006 300.305 86.4416 300.72 87.8769 301.135 89.1606 302.214 90.4443 303.389 91.7277 304.579 91.9348 305.852 91.8796 308.023 91.8518 308.922 90.996 310.624 90.0027 312.311 88.7464 311.315 87.6423 310.347 86.9384 309.614 85.1853 307.816 81.9284 304.98 80.2168 303.514 80.6447 303.21 81.0311 302.947 81.3901 302.725 83.9846 301.163 87.0488 295.685 86.9247 294.067 86.8002 292.448 84.6474 291.909 83.1291 292.186 81.6109 292.476 77.2218 295.574 77.3874 295.588 77.553 295.602 79.4024 295.713 79.7062 296.294 80.0097 296.875 79.375 297.511 77.4289 299.987 75.4827 302.449 67.8915 307.899 65.9316 309.503 63.9859 311.122 62.8537 307.276 62.8537 307.276 62.8537 307.276 62.8677 311.218 63.4472 313.432 63.6128 314.082 63.8751 314.607 64.2063 315.008 64.4275 315.285 64.6894 315.493 64.9654 315.686L64.2619 318.148C64.2619 318.148 64.1926 319.283 64.11 320.846 62.9919 321.344 62.0671 321.773 61.5425 322.049 59.1966 323.335 53.3304 325.396 50.4321 325.645 47.5201 325.908 43.6967 325.286 43.7378 326.323 43.7934 327.333 44.4143 331.413 46.0982 332.534 47.7957 333.668 51.0804 334.705 51.9503 334.498 52.8199 334.29 59.6382 330.016 59.6382 330.016L63.8888 327.416C63.8751 328.757 63.9029 329.85 63.9996 330.279 64.3582 331.87 64.303 336.96 65.4348 337.942 66.5667 338.91 70.39 340.556 71.5352 338.606 72.6811 336.656 73.1776 331.552 73.4399 328.84 73.5643 327.513 73.1776 324.608 72.7497 321.966L74.4613 320.915 74.3924 320.956 75.2619 322.851C75.2619 322.851 75.8002 323.515 79.2094 326.323 82.6182 329.117 85.5721 324.622 86.9384 323.999 87.9458 323.543 89.3814 322.035 90.7477 320.389ZM70.2656 323.501 67.0498 325.466C67.105 326.06 67.1327 326.489 67.1327 326.683 67.1327 327.969 67.4362 328.094 68.0023 328.094 68.5676 328.094 70.0033 326.378 70.0448 324.94 70.0722 324.649 70.1414 324.124 70.2656 323.501ZM70.2656 294.717C70.2656 294.717 66.5115 294.827 64.0133 294.924 61.5014 295.035 59.0858 294.924 59.0858 294.924L57.8988 294.717C57.8988 294.717 66.4148 291.079 69.2304 289.419 72.0598 287.787 77.7045 283.983 78.2154 283.361 78.7259 282.738 81.4175 279.294 82.2459 279.072 83.0598 278.838 85.2683 279.197 86.2897 280.636 87.3111 282.074 87.725 283.54 87.2974 284.26 86.8558 284.979 83.0598 287.856 81.5831 289.198 80.0786 290.526 77.2633 291.964 76.8631 292.434 76.4489 292.891 71.6045 302.145 64.7587 304.814 71.1351 296.072 70.2656 294.717 70.2656 294.717ZM46.9266 307.29C48.6378 309.6 52.0744 310.167 54.3103 308.701 55.0557 308.217 55.4836 307.359 55.663 306.432 56.5051 302.158 52.5438 301.785 49.59 302.117 47.8235 302.324 45.408 301.439 45.0768 301.107 45.0493 303.127 45.7533 305.727 46.9266 307.29ZM56.1183 250.883C59.0029 251.09 64.7031 251.45 67.7948 251.367 72.115 251.27 82.9909 250.952 82.6045 244.437 82.4252 241.311 78.5603 233.925 76.9595 231.269 76.9595 233.012 77.5389 241.325 76.4074 242.113 74.1301 243.649 65.5864 244.243 63.3231 244.23L58.1889 244.188C58.6994 242.846 59.2652 241.256 59.7898 239.969 60.7145 237.701 57.844 234.561 57.2223 233.593 56.6151 232.611 54.6141 232.306 54.3518 233.081 54.1036 233.842 53.4823 236.512 53.0684 239.402 52.6543 242.266 51.9915 247.882 51.2742 249.68 50.5699 251.478 50.3491 250.606 49.2314 252.045 48.0992 253.483 49.1206 255.018 49.2314 256.817 49.328 258.615 51.5913 259.846 53.4823 260.372 55.3732 260.883 54.2555 259.846 54.7108 258.408 55.1661 256.969 55.2765 254.617 55.2765 254.3ZM229.527 446.897C349.025 446.897 445.901 349.81 445.901 230.052 445.901 110.294 349.025 13.2045 229.527 13.2045 110.029 13.2045 13.1529 110.294 13.1529 230.052 13.1529 349.81 110.029 446.897 229.527 446.897" fill-rule="evenodd" transform="matrix(1 0 0 -1 1029 1378)"/></g></svg>
